# Blender v2.80 (sub 75) OBJ File: 'lock_lowpoly.blend'
# www.blender.org
mtllib lock_lowpoly.mtl
o Cylinder.001
v 0.790268 -0.404545 0.192251
v -0.790268 -0.404545 0.189108
v 0.790268 -0.321004 0.271562
v -0.790268 -0.321004 0.268419
v 0.790268 0.123514 0.244261
v -0.790268 0.123514 0.241118
v 0.790268 -0.250516 0.318660
v -0.790268 -0.250516 0.315518
v 0.790268 0.042314 0.296258
v -0.790268 0.042314 0.293115
v 0.790271 -0.132362 0.341808
v -0.790264 -0.132362 0.338665
v 0.790268 -0.052217 0.338278
v -0.790268 -0.052217 0.335135
v 0.790268 -1.148813 0.344786
v -0.790268 -1.148813 0.341643
v 0.790268 0.197913 0.132914
v -0.790268 0.197913 0.129771
v 0.790268 0.197913 -0.129771
v -0.790268 0.197913 -0.132914
v 0.790268 0.224039 0.001571
v -0.790268 0.224039 -0.001572
v 0.790268 -0.404545 -0.189108
v -0.790268 -0.404545 -0.192251
v 0.790268 0.123514 -0.241118
v -0.790268 0.123514 -0.244261
v 0.790268 -0.309853 -0.283801
v -0.790268 -0.309853 -0.286944
v 0.790268 0.012167 -0.315518
v -0.790268 0.012167 -0.318661
v 0.790268 -0.186132 -0.335048
v -0.790268 -0.186132 -0.338191
v 0.790268 -0.078508 -0.333554
v -0.790268 -0.078508 -0.336697
v 0.790268 -1.148812 -0.341643
v -0.790268 -1.148812 -0.344786
v -0.790268 -1.618803 1.027380
v -0.790268 -1.531435 1.238306
v -0.790268 -1.357480 1.412261
v -0.790268 -1.146554 1.499629
v -0.790268 0.908205 1.499629
v -0.790268 1.119132 1.412261
v -0.790268 1.293087 1.238306
v -0.790268 1.380455 1.027380
v -0.790268 -1.146554 -1.499629
v -0.790268 -1.357480 -1.412261
v -0.790268 -1.531435 -1.238306
v -0.790268 -1.618803 -1.027380
v -0.790268 1.380455 -1.027380
v -0.790268 1.293087 -1.238306
v -0.790268 1.119132 -1.412261
v -0.790268 0.908205 -1.499629
v 0.790268 -1.146554 1.499629
v 0.790268 -1.357480 1.412261
v 0.790268 -1.531435 1.238306
v 0.790268 -1.618803 1.027380
v 0.790268 1.380455 1.027380
v 0.790268 1.293087 1.238306
v 0.790268 1.119132 1.412261
v 0.790268 0.908205 1.499629
v 0.790268 -1.618803 -1.027380
v 0.790268 -1.531435 -1.238306
v 0.790268 -1.357480 -1.412261
v 0.790268 -1.146554 -1.499629
v 0.790268 0.908205 -1.499629
v 0.790268 1.119132 -1.412261
v 0.790268 1.293087 -1.238306
v 0.790268 1.380455 -1.027380
v 0.118124 1.616982 0.552686
v 0.176734 1.660618 0.843982
v 0.041546 1.674717 0.933282
v -0.117919 1.669849 0.901924
v -0.208248 1.649503 0.768296
v -0.176528 1.625504 0.610608
v -0.041341 1.611910 0.521327
v 0.208453 1.637046 0.686334
v 0.041546 1.953884 0.869850
v -0.117919 1.943995 0.839712
v -0.208248 1.901851 0.711261
v 0.176734 1.925723 0.784022
v -0.176528 1.852138 0.559743
v -0.041341 1.823978 0.473915
v 0.118124 1.833866 0.504054
v 0.208453 1.876011 0.632505
v 0.041546 2.260947 0.722214
v 0.176733 2.209125 0.648228
v -0.117919 2.242749 0.696234
v -0.208249 2.165193 0.585505
v -0.176529 2.073709 0.454892
v -0.041341 2.021888 0.380906
v 0.118124 2.040085 0.406887
v 0.208453 2.117642 0.517615
v 0.041546 2.539303 0.411590
v -0.117919 2.511201 0.396880
v -0.208249 2.391430 0.334186
v -0.176529 2.250150 0.260233
v -0.041341 2.170122 0.218342
v 0.118124 2.198225 0.233052
v 0.208453 2.317996 0.295746
v 0.176733 2.459275 0.369699
v 0.176714 2.548419 0.007585
v 0.041521 2.638736 0.008572
v -0.176536 2.312369 0.005317
v -0.041343 2.222052 0.004330
v 0.118120 2.253779 0.004585
v -0.117942 2.607009 0.008317
v -0.208264 2.471823 0.006969
v 0.208442 2.388965 0.005934
v 0.176118 2.468324 -0.352369
v -0.118580 2.521194 -0.377116
v -0.208799 2.399673 -0.317715
v -0.176949 2.256253 -0.248063
v -0.041688 2.174947 -0.208961
v 0.040858 2.549630 -0.391470
v 0.117750 2.203383 -0.223315
v 0.207968 2.324904 -0.282717
v 0.174633 2.225956 -0.638215
v -0.120173 2.261265 -0.684017
v -0.177990 2.086722 -0.446431
v -0.042561 2.032918 -0.374325
v 0.116816 2.051413 -0.400629
v 0.206780 2.131372 -0.509936
v 0.039204 2.279759 -0.710322
v -0.210138 2.181305 -0.574710
v 0.173327 1.940646 -0.780856
v 0.037784 1.969812 -0.865784
v -0.121553 1.959966 -0.834965
v -0.043455 1.836614 -0.470602
v 0.115882 1.846461 -0.501421
v -0.211347 1.916874 -0.706454
v -0.178998 1.865780 -0.555530
v 0.205676 1.889552 -0.629933
v 0.172710 1.673037 -0.842776
v 0.037130 1.686803 -0.931454
v -0.122194 1.681987 -0.899400
v -0.211934 1.661411 -0.765390
v -0.179520 1.637128 -0.607927
v -0.043940 1.623362 -0.519249
v 0.115385 1.628178 -0.551304
v 0.205124 1.648754 -0.685313
v 0.118124 1.277087 0.552686
v 0.176734 1.320723 0.843982
v 0.041546 1.334821 0.933282
v -0.117919 1.329953 0.901924
v -0.208248 1.309608 0.768296
v -0.176528 1.285609 0.610608
v -0.041341 1.272014 0.521327
v 0.208453 1.297150 0.686334
v 0.172710 1.333142 -0.842776
v 0.037130 1.346908 -0.931454
v -0.122194 1.342092 -0.899400
v -0.211934 1.321516 -0.765390
v -0.179520 1.297232 -0.607927
v -0.043940 1.283467 -0.519249
v 0.115385 1.288283 -0.551304
v 0.205124 1.308859 -0.685313
vn 0.0000 0.7071 0.7071
vn 0.0000 0.0000 1.0000
vn 0.0000 0.7071 -0.7071
vn -0.0014 0.7071 0.7071
vn -0.0004 -0.9808 0.1951
vn 0.0017 0.5556 -0.8315
vn 0.0017 -0.5393 -0.8421
vn 0.0018 -0.4062 -0.9138
vn 0.0020 0.1923 -0.9813
vn 0.0011 -0.8315 -0.5556
vn 0.0004 -0.9808 -0.1951
vn -1.0000 -0.0000 -0.0000
vn -0.0020 -0.1951 0.9808
vn -0.0018 0.3827 0.9239
vn -0.0017 -0.5556 0.8315
vn -0.0000 1.0000 0.0000
vn 0.0020 -0.0440 -0.9990
vn 0.0019 -0.2008 -0.9796
vn -0.0019 -0.2008 0.9796
vn -0.0020 -0.0139 0.9999
vn 0.0014 0.6885 -0.7252
vn 0.0000 -0.7071 0.7071
vn 0.0000 -0.7071 -0.7071
vn 0.0000 0.0000 -1.0000
vn 1.0000 -0.0000 0.0000
vn 0.0000 -1.0000 0.0000
vn -0.0011 -0.8315 0.5556
vn 0.0000 -0.9239 -0.3827
vn 0.0000 -0.3827 -0.9239
vn 0.0000 0.9239 -0.3827
vn 0.0000 0.3827 -0.9239
vn 0.0000 -0.9239 0.3827
vn 0.0000 -0.3827 0.9239
vn 0.0000 0.9239 0.3827
vn 0.0000 0.3827 0.9239
vn 0.1946 -0.2143 -0.9572
vn 0.9804 0.0850 0.1779
vn 0.5545 0.1840 0.8116
vn 0.9806 0.0431 0.1910
vn -0.8286 0.2418 0.5049
vn 0.9797 0.1491 0.1342
vn 0.8305 -0.1222 -0.5435
vn 0.8239 -0.4200 -0.3805
vn 0.8286 -0.2396 -0.5060
vn -0.5513 -0.3559 -0.7546
vn 0.1930 -0.4178 -0.8878
vn 0.5450 0.8182 -0.1831
vn -0.8240 0.4215 0.3787
vn -0.1899 0.9532 0.2351
vn -0.1902 0.9583 -0.2131
vn -0.8246 0.5525 -0.1215
vn 0.1897 -0.7259 -0.6611
vn 0.5448 0.8142 0.2006
vn -0.9797 -0.1489 -0.1344
vn -0.9797 -0.1947 -0.0477
vn 0.5445 0.6244 0.5601
vn -0.5448 -0.8148 -0.1983
vn -0.5445 -0.6207 -0.5642
vn -0.5450 -0.8185 0.1819
vn 0.1899 -0.9541 -0.2318
vn -0.8247 0.4334 -0.3633
vn 0.8246 -0.5526 0.1211
vn -0.1912 0.7496 -0.6337
vn 0.8241 -0.5502 -0.1343
vn 0.9797 0.1947 0.0478
vn -0.8328 0.1265 -0.5389
vn 0.9793 0.1518 -0.1341
vn 0.9797 0.1955 -0.0451
vn 0.1902 -0.9587 0.2116
vn -0.5505 -0.1849 0.8141
vn 0.5428 0.6394 -0.5445
vn -0.9793 -0.1516 0.1343
vn -0.5480 -0.3674 0.7515
vn 0.9796 0.0859 -0.1815
vn 0.8328 -0.1255 0.5391
vn -0.9797 -0.1955 0.0450
vn 0.1986 -0.2186 0.9554
vn -0.9798 -0.0427 0.1953
vn 0.5481 0.3725 -0.7489
vn -0.8303 0.2522 -0.4971
vn 0.9798 0.0428 -0.1953
vn 0.1912 -0.7455 0.6386
vn -0.1986 0.2219 -0.9546
vn -0.5428 -0.6364 0.5480
vn 0.8247 -0.4321 0.3648
vn 0.8302 -0.2500 0.4982
vn 0.1962 -0.4330 0.8798
vn -0.9796 -0.0856 0.1816
vn -0.1962 0.4401 -0.8762
vn 0.5506 0.1872 -0.8135
vn 0.5514 0.3610 0.7521
vn -0.1945 0.2172 0.9566
vn -0.9804 -0.0847 -0.1781
vn -0.1897 0.7311 0.6554
vn -0.1930 0.4250 0.8844
vn -0.5542 -0.1820 -0.8123
vn -0.9807 -0.0430 -0.1909
vn -0.8305 0.1230 0.5432
vn -0.8242 0.5499 0.1354
vn 0.5474 0.0000 -0.8369
vn -0.9795 0.0000 0.2016
vn 0.1930 0.0000 -0.9812
vn -0.8285 0.0000 0.5600
vn -0.8309 0.0000 -0.5564
vn -0.9804 0.0000 -0.1972
vn 0.9795 0.0000 -0.2016
vn 0.5512 0.0000 0.8344
vn -0.1972 0.0000 -0.9804
vn -0.5511 0.0000 -0.8344
vn 0.1972 0.0000 0.9804
vn 0.8285 0.0000 -0.5600
vn 0.8309 0.0000 0.5564
vn -0.5474 0.0000 0.8369
vn -0.1930 0.0000 0.9812
vn 0.9804 0.0000 0.1973
usemtl None
s off
f 58//1 43//1 42//1 59//1
f 53//2 60//2 41//2 40//2
f 50//3 67//3 66//3 51//3
f 23//4 27//4 28//4 24//4
f 19//5 21//5 22//5 20//5
f 3//6 4//6 8//6 7//6
f 6//7 5//7 9//7 10//7
f 10//8 9//8 13//8 14//8
f 12//9 11//9 7//9 8//9
f 5//10 6//10 18//10 17//10
f 22//11 21//11 17//11 18//11
f 45//12 46//12 36//12 24//12 28//12 32//12 34//12 30//12 26//12 20//12 22//12 18//12 6//12 10//12 14//12 12//12 39//12 40//12 41//12 42//12 43//12 44//12 49//12 50//12 51//12 52//12
f 29//13 30//13 34//13 33//13
f 27//14 31//14 32//14 28//14
f 30//15 29//15 25//15 26//15
f 16//16 15//16 35//16 36//16
f 11//17 12//17 14//17 13//17
f 2//18 1//18 15//18 16//18
f 36//19 35//19 23//19 24//19
f 32//20 31//20 33//20 34//20
f 4//21 3//21 1//21 2//21
f 38//22 55//22 54//22 39//22
f 62//23 47//23 46//23 63//23
f 45//24 52//24 65//24 64//24
f 61//25 35//25 15//25 1//25 3//25 7//25 11//25 60//25 53//25 54//25 55//25 56//25
f 48//26 61//26 56//26 37//26
f 68//16 49//16 44//16 57//16
f 58//25 59//25 60//25 11//25 13//25 9//25 5//25 17//25 21//25 19//25 25//25 29//25 33//25 31//25 27//25 23//25 35//25 61//25 62//25 63//25 64//25 65//25 66//25 67//25 68//25 57//25
f 12//12 8//12 4//12 2//12 16//12 36//12 46//12 47//12 48//12 37//12 38//12 39//12
f 26//27 25//27 19//27 20//27
f 61//28 48//28 47//28 62//28
f 45//29 64//29 63//29 46//29
f 49//30 68//30 67//30 50//30
f 65//31 52//31 51//31 66//31
f 37//32 56//32 55//32 38//32
f 53//33 40//33 39//33 54//33
f 57//34 44//34 43//34 58//34
f 41//35 60//35 59//35 42//35
f 69//36 75//36 82//36 83//36
f 92//37 86//37 80//37 84//37
f 71//38 70//38 80//38 77//38
f 70//39 76//39 84//39 80//39
f 79//40 78//40 87//40 88//40
f 99//41 100//41 86//41 92//41
f 83//42 84//42 76//42 69//42
f 98//43 99//43 92//43 91//43
f 91//44 92//44 84//44 83//44
f 89//45 90//45 82//45 81//45
f 83//46 82//46 90//46 91//46
f 102//47 101//47 109//47 114//47
f 95//48 88//48 87//48 94//48
f 102//49 106//49 94//49 93//49
f 106//50 102//50 114//50 110//50
f 107//51 106//51 110//51 111//51
f 97//52 98//52 91//52 90//52
f 102//53 93//53 100//53 101//53
f 89//54 88//54 95//54 96//54
f 107//55 103//55 96//55 95//55
f 93//56 85//56 86//56 100//56
f 97//57 96//57 103//57 104//57
f 96//58 97//58 90//58 89//58
f 104//59 103//59 112//59 113//59
f 104//60 105//60 98//60 97//60
f 118//61 124//61 111//61 110//61
f 115//62 116//62 108//62 105//62
f 123//63 118//63 110//63 114//63
f 99//64 98//64 105//64 108//64
f 100//65 99//65 108//65 101//65
f 135//66 136//66 130//66 127//66
f 122//67 117//67 109//67 116//67
f 116//68 109//68 101//68 108//68
f 105//69 104//69 113//69 115//69
f 137//70 138//70 128//70 131//70
f 117//71 123//71 114//71 109//71
f 112//72 111//72 124//72 119//72
f 131//73 128//73 120//73 119//73
f 132//74 125//74 117//74 122//74
f 139//75 140//75 132//75 129//75
f 103//76 107//76 111//76 112//76
f 138//77 139//77 129//77 128//77
f 131//78 130//78 136//78 137//78
f 125//79 126//79 123//79 117//79
f 124//80 118//80 127//80 130//80
f 140//81 133//81 125//81 132//81
f 120//82 121//82 115//82 113//82
f 127//83 126//83 134//83 135//83
f 113//84 112//84 119//84 120//84
f 121//85 122//85 116//85 115//85
f 122//86 121//86 129//86 132//86
f 121//87 120//87 128//87 129//87
f 131//88 119//88 124//88 130//88
f 127//89 118//89 123//89 126//89
f 133//90 134//90 126//90 125//90
f 86//91 85//91 77//91 80//91
f 77//92 78//92 72//92 71//92
f 81//93 79//93 88//93 89//93
f 87//94 85//94 93//94 94//94
f 87//95 78//95 77//95 85//95
f 81//96 82//96 75//96 74//96
f 74//97 73//97 79//97 81//97
f 78//98 79//98 73//98 72//98
f 95//99 94//99 106//99 107//99
f 134//100 133//100 149//100 150//100
f 137//101 136//101 152//101 153//101
f 75//102 69//102 141//102 147//102
f 72//103 73//103 145//103 144//103
f 136//104 135//104 151//104 152//104
f 73//105 74//105 146//105 145//105
f 133//106 140//106 156//106 149//106
f 70//107 71//107 143//107 142//107
f 135//108 134//108 150//108 151//108
f 74//109 75//109 147//109 146//109
f 139//110 138//110 154//110 155//110
f 69//111 76//111 148//111 141//111
f 140//112 139//112 155//112 156//112
f 138//113 137//113 153//113 154//113
f 71//114 72//114 144//114 143//114
f 76//115 70//115 142//115 148//115
