# Blender v2.80 (sub 75) OBJ File: 'spoke_threeway_flat_lowpoly.blend'
# www.blender.org
mtllib spoke_threeway_flat_lowpoly.mtl
o Sphere
v 0.000001 4.608238 -0.468912
v 0.000001 -5.100698 -0.458763
v 0.000000 -5.399205 -0.257775
v 0.091399 -4.983345 -0.459497
v 0.084244 -5.188869 -0.423522
v 0.064240 -5.341131 -0.322955
v 0.034408 -5.442106 -0.172978
v 0.179445 4.608238 -0.433219
v 0.175561 -5.100698 -0.423841
v 0.148509 -5.270105 -0.358532
v 0.098646 -5.399205 -0.238153
v 0.033762 -5.468226 -0.081509
v 0.260284 -4.983345 -0.389542
v 0.239906 -5.188870 -0.359045
v 0.182940 -5.341131 -0.273788
v 0.097984 -5.442106 -0.146643
v 0.331571 4.608238 -0.331571
v 0.324394 -5.100698 -0.324394
v 0.274409 -5.270105 -0.274409
v 0.182274 -5.399205 -0.182274
v 0.062384 -5.468226 -0.062384
v 0.389542 -4.983345 -0.260284
v 0.359045 -5.188870 -0.239906
v 0.273788 -5.341131 -0.182940
v 0.146643 -5.442106 -0.097984
v 0.433218 4.608238 -0.179445
v 0.423841 -5.100698 -0.175561
v 0.358532 -5.270105 -0.148509
v 0.238153 -5.399205 -0.098646
v 0.081508 -5.468226 -0.033762
v 0.459497 -4.983345 -0.091400
v 0.423522 -5.188870 -0.084244
v 0.322955 -5.341131 -0.064240
v 0.172978 -5.442106 -0.034408
v 0.468912 4.608238 -0.000000
v 0.458762 -5.100698 0.000000
v 0.388073 -5.270105 0.000000
v 0.257775 -5.399205 0.000000
v 0.088224 -5.468226 0.000000
v 0.459497 -4.983344 0.091400
v 0.423522 -5.188870 0.084244
v 0.322955 -5.341131 0.064240
v 0.172978 -5.442106 0.034408
v 0.433218 4.608238 0.179445
v 0.423841 -5.100698 0.175561
v 0.358532 -5.270105 0.148509
v 0.238153 -5.399205 0.098646
v 0.081508 -5.468226 0.033762
v 0.389542 -4.983344 0.260284
v 0.359045 -5.188870 0.239906
v 0.273788 -5.341131 0.182939
v 0.146643 -5.442106 0.097984
v 0.331571 4.608238 0.331571
v 0.324394 -5.100698 0.324394
v 0.274409 -5.270105 0.274409
v 0.182274 -5.399205 0.182274
v 0.062384 -5.468226 0.062384
v 0.260284 -4.983344 0.389542
v 0.239906 -5.188870 0.359045
v 0.182940 -5.341131 0.273788
v 0.097984 -5.442106 0.146643
v -0.000000 -5.476599 0.000000
v 0.179445 4.608238 0.433218
v 0.175561 -5.100698 0.423841
v 0.148509 -5.270105 0.358532
v 0.098646 -5.399205 0.238153
v 0.033762 -5.468226 0.081509
v 0.091399 -4.983344 0.459497
v 0.084244 -5.188870 0.423522
v 0.064240 -5.341131 0.322955
v 0.034407 -5.442106 0.172978
v -0.000000 4.608238 0.468912
v -0.000000 -5.100698 0.458762
v -0.000000 -5.270105 0.388072
v -0.000000 -5.399205 0.257775
v -0.000000 -5.468226 0.088224
v -0.091400 -4.983344 0.459496
v -0.084244 -5.188870 0.423522
v -0.064240 -5.341131 0.322955
v -0.034408 -5.442106 0.172978
v -0.179445 4.608238 0.433218
v -0.175561 -5.100698 0.423841
v -0.148509 -5.270105 0.358532
v -0.098646 -5.399205 0.238153
v -0.033762 -5.468226 0.081509
v -0.260284 -4.983344 0.389542
v -0.239906 -5.188870 0.359045
v -0.182939 -5.341131 0.273788
v -0.097984 -5.442106 0.146643
v -0.331571 4.608238 0.331570
v -0.324394 -5.100698 0.324394
v -0.274409 -5.270105 0.274409
v -0.182275 -5.399205 0.182274
v -0.062384 -5.468226 0.062384
v -0.389542 -4.983344 0.260284
v -0.359045 -5.188870 0.239906
v -0.273788 -5.341131 0.182940
v -0.146644 -5.442106 0.097984
v -0.433218 4.608238 0.179444
v -0.423841 -5.100698 0.175561
v -0.358533 -5.270105 0.148509
v -0.238153 -5.399205 0.098646
v -0.081509 -5.468226 0.033762
v -0.459497 -4.983344 0.091400
v -0.423523 -5.188870 0.084244
v -0.322955 -5.341131 0.064240
v -0.172978 -5.442106 0.034408
v -0.468912 4.608238 -0.000000
v -0.458762 -5.100698 0.000000
v -0.388073 -5.270105 0.000000
v -0.257775 -5.399205 0.000000
v -0.088224 -5.468226 0.000000
v -0.459497 -4.983344 -0.091399
v -0.423522 -5.188870 -0.084244
v -0.322955 -5.341131 -0.064240
v -0.172978 -5.442106 -0.034407
v -0.433218 4.608238 -0.179445
v -0.423841 -5.100698 -0.175561
v -0.358532 -5.270105 -0.148509
v -0.238153 -5.399205 -0.098646
v -0.081509 -5.468226 -0.033762
v -0.389542 -4.983344 -0.260283
v -0.359045 -5.188870 -0.239905
v -0.273788 -5.341131 -0.182939
v -0.146644 -5.442106 -0.097984
v -0.331571 4.608238 -0.331571
v -0.324394 -5.100699 -0.324394
v -0.274409 -5.270105 -0.274408
v -0.182275 -5.399205 -0.182274
v -0.062384 -5.468226 -0.062384
v -0.260284 -4.983344 -0.389542
v -0.239906 -5.188870 -0.359044
v -0.182940 -5.341131 -0.273788
v -0.097984 -5.442106 -0.146643
v -0.179445 4.608238 -0.433218
v -0.175561 -5.100699 -0.423840
v -0.148509 -5.270105 -0.358532
v -0.098647 -5.399205 -0.238152
v -0.033762 -5.468226 -0.081508
v -0.091398 -4.983345 -0.459496
v -0.084244 -5.188870 -0.423522
v -0.064240 -5.341131 -0.322955
v -0.034408 -5.442106 -0.172977
v 0.000001 -5.270105 -0.388072
v 0.000000 -5.468226 -0.088224
vt 0.750000 0.187500
vt 0.718750 0.250000
vt 0.687500 0.187500
vt 0.718750 0.125000
vt 0.750000 0.437500
vt 0.781250 0.500000
vt 0.750000 0.562500
vt 0.718750 0.500000
vt 0.687500 0.312500
vt 0.656250 0.375000
vt 0.625000 0.312500
vt 0.656250 0.250000
vt 0.750000 0.312500
vt 0.718750 0.375000
vt 0.656250 0.125000
vt 0.687500 0.062500
vt 0.687500 0.437500
vt 0.656250 0.500000
vt 0.625000 0.437500
vt 0.734375 0.000000
vt 0.750000 0.062500
vt 0.625000 0.562500
vt 0.593750 0.500000
vt 0.687500 0.562500
vt 0.625000 0.062500
vt 0.671875 0.000000
vt 0.625000 0.187500
vt 0.562500 0.437500
vt 0.593750 0.375000
vt 0.531250 0.375000
vt 0.562500 0.312500
vt 0.593750 0.250000
vt 0.593750 0.125000
vt 0.562500 0.562500
vt 0.531250 0.500000
vt 0.562500 0.187500
vt 0.562500 0.062500
vt 0.609375 0.000000
vt 0.500000 0.437500
vt 0.468750 0.375000
vt 0.500000 0.312500
vt 0.531250 0.250000
vt 0.531250 0.125000
vt 0.500000 0.062500
vt 0.546875 0.000000
vt 0.500000 0.187500
vt 0.500000 0.562500
vt 0.468750 0.500000
vt 0.437500 0.437500
vt 0.406250 0.375000
vt 0.437500 0.312500
vt 0.468750 0.250000
vt 0.468750 0.125000
vt 0.437500 0.062500
vt 0.484375 0.000000
vt 0.437500 0.562500
vt 0.406250 0.500000
vt 0.437500 0.187500
vt 0.375000 0.437500
vt 0.343750 0.375000
vt 0.375000 0.312500
vt 0.406250 0.250000
vt 0.406250 0.125000
vt 0.375000 0.062500
vt 0.421875 0.000000
vt 0.375000 0.562500
vt 0.343750 0.500000
vt 0.375000 0.187500
vt 0.312500 0.437500
vt 0.281250 0.375000
vt 0.312500 0.312500
vt 0.343750 0.250000
vt 0.343750 0.125000
vt 0.312500 0.062500
vt 0.359375 0.000000
vt 0.312500 0.562500
vt 0.281250 0.500000
vt 0.312500 0.187500
vt 0.250000 0.437500
vt 0.218750 0.375000
vt 0.250000 0.312500
vt 0.281250 0.250000
vt 0.281250 0.125000
vt 0.250000 0.562500
vt 0.218750 0.500000
vt 0.250000 0.187500
vt 0.250000 0.062500
vt 0.296875 0.000000
vt 0.187500 0.437500
vt 0.156250 0.375000
vt 0.187500 0.312500
vt 0.218750 0.250000
vt 0.218750 0.125000
vt 0.187500 0.562500
vt 0.156250 0.500000
vt 0.187500 0.187500
vt 0.187500 0.062500
vt 0.234375 0.000000
vt 0.125000 0.437500
vt 0.093750 0.375000
vt 0.125000 0.312500
vt 0.156250 0.250000
vt 0.156250 0.125000
vt 0.093750 0.500000
vt 0.062500 0.562500
vt 0.031250 0.500000
vt 0.062500 0.437500
vt 0.125000 0.562500
vt 0.125000 0.187500
vt 0.125000 0.062500
vt 0.171875 0.000000
vt 0.093750 0.250000
vt 0.031250 0.375000
vt 0.062500 0.312500
vt 0.093750 0.125000
vt 0.062500 0.187500
vt 0.062500 0.062500
vt 0.109375 0.000000
vt 1.000000 0.437500
vt 0.968750 0.375000
vt 0.000000 0.312500
vt 0.031250 0.125000
vt 0.000000 0.437500
vt 0.031250 0.250000
vt 1.000000 0.562500
vt 0.968750 0.500000
vt 0.000000 0.562500
vt 0.000000 0.187500
vt 0.000000 0.062500
vt 0.046875 0.000000
vt 0.937500 0.437500
vt 0.906250 0.375000
vt 0.937500 0.312500
vt 1.000000 0.312500
vt 0.968750 0.250000
vt 1.000000 0.187500
vt 0.968750 0.125000
vt 0.937500 0.562500
vt 0.906250 0.500000
vt 1.000000 0.062500
vt 0.937500 0.062500
vt 0.984375 0.000000
vt 0.937500 0.187500
vt 0.875000 0.437500
vt 0.906250 0.250000
vt 0.875000 0.312500
vt 0.906250 0.125000
vt 0.875000 0.562500
vt 0.843750 0.500000
vt 0.875000 0.062500
vt 0.921875 0.000000
vt 0.875000 0.187500
vt 0.812500 0.437500
vt 0.843750 0.375000
vt 0.843750 0.250000
vt 0.812500 0.312500
vt 0.843750 0.125000
vt 0.812500 0.562500
vt 0.812500 0.187500
vt 0.812500 0.062500
vt 0.859375 0.000000
vt 0.781250 0.375000
vt 0.781250 0.250000
vt 0.781250 0.125000
vt 0.796875 0.000000
vn 0.1075 -0.8345 -0.5404
vn -0.0000 -0.0010 -1.0000
vn 0.4608 -0.5586 -0.6897
vn 0.1618 -0.5586 -0.8135
vn 0.1443 -0.9262 -0.3483
vn 0.5469 -0.1757 -0.8185
vn 0.0374 -0.9814 -0.1883
vn 0.3532 -0.3851 -0.8526
vn 0.2693 -0.7104 -0.6503
vn 0.7071 -0.0010 -0.7071
vn 0.5556 0.0009 -0.8315
vn 0.1066 -0.9814 -0.1596
vn 0.3061 -0.8345 -0.4582
vn 0.8185 -0.1757 -0.5469
vn 0.8526 -0.3851 -0.3532
vn 0.4977 -0.7104 -0.4977
vn 0.6897 -0.5586 -0.4608
vn 0.6526 -0.3851 -0.6526
vn 0.2666 -0.9262 -0.2666
vn 0.9239 -0.0010 -0.3827
vn 0.4582 -0.8345 -0.3061
vn 0.1596 -0.9814 -0.1067
vn 0.8315 0.0009 -0.5556
vn 0.9229 -0.3851 -0.0000
vn 0.6503 -0.7104 -0.2693
vn 0.8135 -0.5586 -0.1618
vn 0.3483 -0.9262 -0.1443
vn 0.9655 -0.1757 -0.1921
vn 0.1883 -0.9814 -0.0375
vn 0.5404 -0.8345 -0.1075
vn 1.0000 -0.0010 -0.0000
vn 0.9808 0.0009 -0.1951
vn 0.8526 -0.3851 0.3532
vn 0.7038 -0.7104 -0.0000
vn 0.8135 -0.5586 0.1618
vn 0.3770 -0.9262 0.0000
vn 0.9655 -0.1757 0.1921
vn 0.1883 -0.9814 0.0374
vn 0.9239 -0.0010 0.3827
vn 0.9808 0.0009 0.1951
vn 0.5404 -0.8345 0.1075
vn 0.6526 -0.3851 0.6526
vn 0.6897 -0.5586 0.4608
vn 0.3483 -0.9262 0.1443
vn 0.6503 -0.7104 0.2693
vn 0.8185 -0.1757 0.5469
vn 0.1596 -0.9814 0.1066
vn 0.7071 -0.0010 0.7071
vn 0.8315 0.0009 0.5556
vn 0.4582 -0.8345 0.3061
vn 0.3532 -0.3851 0.8526
vn 0.4608 -0.5586 0.6897
vn 0.2666 -0.9262 0.2666
vn 0.4977 -0.7104 0.4977
vn 0.1066 -0.9814 0.1596
vn 0.3827 -0.0010 0.9239
vn 0.5556 0.0009 0.8315
vn 0.5469 -0.1757 0.8185
vn 0.3061 -0.8345 0.4582
vn 0.0000 -0.3851 0.9229
vn 0.2693 -0.7104 0.6503
vn 0.1618 -0.5586 0.8135
vn 0.1443 -0.9262 0.3483
vn 0.1921 -0.1757 0.9655
vn -0.0000 -0.0010 1.0000
vn 0.1951 0.0009 0.9808
vn 0.1075 -0.8345 0.5404
vn 0.0374 -0.9814 0.1883
vn -0.3532 -0.3851 0.8526
vn -0.0000 -0.7104 0.7038
vn -0.1618 -0.5586 0.8135
vn -0.1921 -0.1757 0.9655
vn 0.0000 -0.9262 0.3770
vn -0.3827 -0.0010 0.9239
vn -0.1951 0.0009 0.9808
vn -0.1075 -0.8345 0.5404
vn -0.0374 -0.9814 0.1883
vn -0.6526 -0.3851 0.6526
vn -0.2693 -0.7104 0.6503
vn -0.5469 -0.1757 0.8185
vn -0.1443 -0.9262 0.3483
vn -0.9239 -0.0010 0.3827
vn -0.7071 -0.0010 0.7071
vn -0.5556 0.0009 0.8315
vn -0.3061 -0.8345 0.4582
vn -0.4608 -0.5586 0.6897
vn -0.1066 -0.9814 0.1596
vn -0.4977 -0.7104 0.4977
vn -0.8526 -0.3851 0.3532
vn -0.2666 -0.9262 0.2666
vn -0.8185 -0.1757 0.5469
vn -0.8315 0.0009 0.5556
vn -0.4582 -0.8345 0.3061
vn -0.6897 -0.5586 0.4608
vn -0.1596 -0.9814 0.1067
vn -0.9229 -0.3851 -0.0000
vn -0.3483 -0.9262 0.1443
vn -0.9655 -0.1757 0.1921
vn -0.8135 -0.5586 0.1618
vn -0.6503 -0.7104 0.2693
vn -1.0000 -0.0010 -0.0000
vn -0.9808 0.0009 0.1951
vn -0.5404 -0.8345 0.1075
vn -0.1883 -0.9814 0.0374
vn -0.9655 -0.1757 -0.1921
vn -0.8526 -0.3851 -0.3532
vn -0.7038 -0.7104 0.0000
vn -0.8135 -0.5586 -0.1618
vn -0.3770 -0.9262 0.0000
vn -0.9239 -0.0010 -0.3827
vn -0.9808 0.0009 -0.1951
vn -0.1883 -0.9814 -0.0374
vn -0.5404 -0.8345 -0.1075
vn -0.8185 -0.1757 -0.5469
vn -0.6503 -0.7104 -0.2693
vn -0.6897 -0.5586 -0.4608
vn -0.3483 -0.9262 -0.1443
vn -0.7071 -0.0010 -0.7071
vn -0.8315 0.0009 -0.5556
vn -0.1596 -0.9814 -0.1066
vn -0.4582 -0.8345 -0.3061
vn -0.5469 -0.1757 -0.8185
vn -0.4977 -0.7104 -0.4977
vn -0.4608 -0.5586 -0.6897
vn -0.6526 -0.3851 -0.6526
vn -0.2666 -0.9262 -0.2666
vn -0.3827 -0.0010 -0.9239
vn -0.3061 -0.8345 -0.4582
vn -0.1066 -0.9814 -0.1596
vn -0.0000 -0.3851 -0.9229
vn -0.5556 0.0009 -0.8315
vn -0.1921 -0.1757 -0.9655
vn -0.0000 -0.7104 -0.7038
vn -0.2693 -0.7104 -0.6503
vn -0.1618 -0.5586 -0.8135
vn -0.3532 -0.3851 -0.8526
vn -0.1443 -0.9262 -0.3483
vn 0.0000 1.0000 0.0000
vn -0.1075 -0.8345 -0.5404
vn -0.0374 -0.9814 -0.1883
vn -0.1951 0.0009 -0.9808
vn 0.3827 -0.0010 -0.9239
vn 0.1951 0.0009 -0.9808
vn -0.0000 -0.9262 -0.3770
vn 0.1921 -0.1757 -0.9655
usemtl None
s off
f 3/1/1 6/2/1 11/3/1 7/4/1
f 2/5/2 140/6/2 1/7/2 4/8/2
f 10/9/3 14/10/3 19/11/3 15/12/3
f 144/13/4 5/14/4 10/9/4 6/2/4
f 7/4/5 11/3/5 16/15/5 12/16/5
f 9/17/6 13/18/6 18/19/6 14/10/6
f 62/20/7 145/21/7 7/4/7 12/16/7
f 5/14/8 9/17/8 14/10/8 10/9/8
f 6/2/9 10/9/9 15/12/9 11/3/9
f 13/18/10 17/22/10 22/23/10 18/19/10
f 8/24/11 17/22/11 13/18/11
f 12/16/12 16/15/12 21/25/12 62/26/12
f 11/3/13 15/12/13 20/27/13 16/15/13
f 18/19/14 22/23/14 27/28/14 23/29/14
f 23/29/15 27/28/15 32/30/15 28/31/15
f 15/12/16 19/11/16 24/32/16 20/27/16
f 19/11/17 23/29/17 28/31/17 24/32/17
f 14/10/18 18/19/18 23/29/18 19/11/18
f 16/15/19 20/27/19 25/33/19 21/25/19
f 22/23/20 26/34/20 31/35/20 27/28/20
f 20/27/21 24/32/21 29/36/21 25/33/21
f 21/25/22 25/33/22 30/37/22 62/38/22
f 17/22/23 26/34/23 22/23/23
f 32/30/24 36/39/24 41/40/24 37/41/24
f 24/32/25 28/31/25 33/42/25 29/36/25
f 28/31/26 32/30/26 37/41/26 33/42/26
f 25/33/27 29/36/27 34/43/27 30/37/27
f 27/28/28 31/35/28 36/39/28 32/30/28
f 30/37/29 34/43/29 39/44/29 62/45/29
f 29/36/30 33/42/30 38/46/30 34/43/30
f 31/35/31 35/47/31 40/48/31 36/39/31
f 26/34/32 35/47/32 31/35/32
f 41/40/33 45/49/33 50/50/33 46/51/33
f 33/42/34 37/41/34 42/52/34 38/46/34
f 37/41/35 41/40/35 46/51/35 42/52/35
f 34/43/36 38/46/36 43/53/36 39/44/36
f 36/39/37 40/48/37 45/49/37 41/40/37
f 39/44/38 43/53/38 48/54/38 62/55/38
f 40/48/39 44/56/39 49/57/39 45/49/39
f 35/47/40 44/56/40 40/48/40
f 38/46/41 42/52/41 47/58/41 43/53/41
f 50/50/42 54/59/42 59/60/42 55/61/42
f 46/51/43 50/50/43 55/61/43 51/62/43
f 43/53/44 47/58/44 52/63/44 48/54/44
f 42/52/45 46/51/45 51/62/45 47/58/45
f 45/49/46 49/57/46 54/59/46 50/50/46
f 48/54/47 52/63/47 57/64/47 62/65/47
f 49/57/48 53/66/48 58/67/48 54/59/48
f 44/56/49 53/66/49 49/57/49
f 47/58/50 51/62/50 56/68/50 52/63/50
f 59/60/51 64/69/51 69/70/51 65/71/51
f 55/61/52 59/60/52 65/71/52 60/72/52
f 52/63/53 56/68/53 61/73/53 57/64/53
f 51/62/54 55/61/54 60/72/54 56/68/54
f 57/64/55 61/73/55 67/74/55 62/75/55
f 58/67/56 63/76/56 68/77/56 64/69/56
f 53/66/57 63/76/57 58/67/57
f 54/59/58 58/67/58 64/69/58 59/60/58
f 56/68/59 60/72/59 66/78/59 61/73/59
f 69/70/60 73/79/60 78/80/60 74/81/60
f 60/72/61 65/71/61 70/82/61 66/78/61
f 65/71/62 69/70/62 74/81/62 70/82/62
f 61/73/63 66/78/63 71/83/63 67/74/63
f 64/69/64 68/77/64 73/79/64 69/70/64
f 68/77/65 72/84/65 77/85/65 73/79/65
f 63/76/66 72/84/66 68/77/66
f 66/78/67 70/82/67 75/86/67 71/83/67
f 67/74/68 71/83/68 76/87/68 62/88/68
f 78/80/69 82/89/69 87/90/69 83/91/69
f 70/82/70 74/81/70 79/92/70 75/86/70
f 74/81/71 78/80/71 83/91/71 79/92/71
f 73/79/72 77/85/72 82/89/72 78/80/72
f 71/83/73 75/86/73 80/93/73 76/87/73
f 77/85/74 81/94/74 86/95/74 82/89/74
f 72/84/75 81/94/75 77/85/75
f 75/86/76 79/92/76 84/96/76 80/93/76
f 76/87/77 80/93/77 85/97/77 62/98/77
f 87/90/78 91/99/78 96/100/78 92/101/78
f 79/92/79 83/91/79 88/102/79 84/96/79
f 82/89/80 86/95/80 91/99/80 87/90/80
f 80/93/81 84/96/81 89/103/81 85/97/81
f 95/104/82 99/105/82 104/106/82 100/107/82
f 86/95/83 90/108/83 95/104/83 91/99/83
f 81/94/84 90/108/84 86/95/84
f 84/96/85 88/102/85 93/109/85 89/103/85
f 83/91/86 87/90/86 92/101/86 88/102/86
f 85/97/87 89/103/87 94/110/87 62/111/87
f 88/102/88 92/101/88 97/112/88 93/109/88
f 96/100/89 100/107/89 105/113/89 101/114/89
f 89/103/90 93/109/90 98/115/90 94/110/90
f 91/99/91 95/104/91 100/107/91 96/100/91
f 90/108/92 99/105/92 95/104/92
f 93/109/93 97/112/93 102/116/93 98/115/93
f 92/101/94 96/100/94 101/114/94 97/112/94
f 94/110/95 98/115/95 103/117/95 62/118/95
f 105/113/96 109/119/96 114/120/96 110/121/96
f 98/115/97 102/116/97 107/122/97 103/117/97
f 100/107/98 104/106/98 109/123/98 105/113/98
f 101/114/99 105/113/99 110/121/99 106/124/99
f 97/112/100 101/114/100 106/124/100 102/116/100
f 104/106/101 108/125/101 113/126/101 109/123/101
f 99/105/102 108/127/102 104/106/102
f 102/116/103 106/124/103 111/128/103 107/122/103
f 103/117/104 107/122/104 112/129/104 62/130/104
f 109/119/105 113/126/105 118/131/105 114/120/105
f 114/120/106 118/131/106 123/132/106 119/133/106
f 106/124/107 110/134/107 115/135/107 111/128/107
f 110/134/108 114/120/108 119/133/108 115/135/108
f 107/122/109 111/136/109 116/137/109 112/129/109
f 113/126/110 117/138/110 122/139/110 118/131/110
f 108/125/111 117/138/111 113/126/111
f 112/140/112 116/137/112 121/141/112 62/142/112
f 111/136/113 115/135/113 120/143/113 116/137/113
f 118/131/114 122/139/114 127/144/114 123/132/114
f 115/135/115 119/133/115 124/145/115 120/143/115
f 119/133/116 123/132/116 128/146/116 124/145/116
f 116/137/117 120/143/117 125/147/117 121/141/117
f 122/139/118 126/148/118 131/149/118 127/144/118
f 117/138/119 126/148/119 122/139/119
f 121/141/120 125/147/120 130/150/120 62/151/120
f 120/143/121 124/145/121 129/152/121 125/147/121
f 127/144/122 131/149/122 136/153/122 132/154/122
f 124/145/123 128/146/123 133/155/123 129/152/123
f 128/146/124 132/154/124 137/156/124 133/155/124
f 123/132/125 127/144/125 132/154/125 128/146/125
f 125/147/126 129/152/126 134/157/126 130/150/126
f 131/149/127 135/158/127 140/6/127 136/153/127
f 129/152/128 133/155/128 138/159/128 134/157/128
f 130/150/129 134/157/129 139/160/129 62/161/129
f 2/5/130 5/14/130 144/13/130 141/162/130
f 126/148/131 135/158/131 131/149/131
f 136/153/132 140/6/132 2/5/132 141/162/132
f 142/163/133 144/13/133 6/2/133 3/1/133
f 133/155/134 137/156/134 142/163/134 138/159/134
f 137/156/135 141/162/135 144/13/135 142/163/135
f 132/154/136 136/153/136 141/162/136 137/156/136
f 134/157/137 138/159/137 143/164/137 139/160/137
f 8/24/138 1/7/138 135/158/138 126/148/138 117/138/138 108/127/138 99/105/138 90/108/138 81/94/138 72/84/138 63/76/138 53/66/138 44/56/138 35/47/138 26/34/138 17/22/138
f 138/159/139 142/163/139 3/1/139 143/164/139
f 139/160/140 143/164/140 145/21/140 62/165/140
f 135/158/141 1/7/141 140/6/141
f 4/8/142 8/24/142 13/18/142 9/17/142
f 1/7/143 8/24/143 4/8/143
f 3/1/144 7/4/144 145/21/144 143/164/144
f 2/5/145 4/8/145 9/17/145 5/14/145
