# Blender v2.80 (sub 75) OBJ File: 'spoke_corner_lowpoly.blend'
# www.blender.org
mtllib spoke_corner_lowpoly.mtl
o Sphere
v -0.004395 -4.817420 -0.484638
v -0.032159 -5.141006 -0.290307
v 0.153481 -4.873137 -0.447444
v 0.212569 -4.992581 -0.363932
v 0.125764 -5.094653 -0.319124
v -0.021394 -5.208526 -0.172863
v 0.303747 -4.822800 -0.372559
v 0.310075 -5.025070 -0.264815
v 0.169814 -5.157761 -0.206919
v 0.423198 -4.822800 -0.227960
v 0.064857 -5.227021 -0.069002
v 0.455322 -4.876966 -0.129149
v 0.375477 -5.025009 -0.144694
v 0.428135 -4.979021 0.045389
v 0.299220 -5.134694 -0.041179
v 0.178867 -5.200654 -0.054259
v 0.475254 -4.823762 0.093440
v 0.374304 -4.985220 0.204099
v 0.275469 -5.127662 0.148100
v 0.331571 4.535387 0.331571
v 0.372559 -4.822799 0.303748
v 0.264827 -4.818683 0.399402
v 0.276498 -4.978704 0.329195
v 0.155169 -5.068592 0.333427
v 0.043863 -5.233701 0.035997
v 0.141306 -4.868511 0.453653
v 0.101229 -5.204184 0.149047
v 0.025446 -4.992580 0.420695
v 0.082878 -5.132555 0.293424
v -0.093440 -4.823762 0.475255
v -0.123037 -4.982128 0.410447
v -0.096664 -5.135245 0.285897
v -0.270742 -4.982128 0.332119
v -0.341730 -4.823761 0.343248
v -0.231345 -5.128114 0.201398
v -0.377230 -4.982128 0.203229
v -0.459539 -4.822799 0.141018
v -0.421745 -4.986773 0.056404
v -0.070694 -5.219866 0.112552
v -0.335126 -5.097316 0.066661
v -0.219443 -5.181784 0.054312
v -0.478524 -4.822799 -0.045574
v -0.422457 -4.986281 -0.077864
v -0.423536 -4.865702 -0.217591
v -0.281562 -5.130450 -0.119176
v -0.117640 -5.219752 -0.061868
v -0.341053 -4.824213 -0.335425
v -0.298141 -4.984873 -0.306250
v -0.227960 -4.822799 -0.423198
v -0.191069 -5.104385 -0.278510
v -0.129474 -4.978703 -0.409948
v 0.028446 -4.991203 -0.422502
v 0.331571 4.535387 -0.331571
v -0.433218 4.535388 0.179445
v 0.433218 4.535387 -0.179445
v -0.459902 4.535388 0.091480
v -0.468912 4.535388 -0.000000
v 0.091480 4.535387 0.459902
v 0.459902 4.535387 0.091480
v -0.179445 4.535387 0.433218
v -0.260514 4.535387 0.389886
v -0.000000 4.535387 0.468912
v -0.389886 4.535387 0.260513
v 0.000001 4.535387 -0.468913
v 0.389886 4.535387 -0.260514
v -0.459902 4.535388 -0.091480
v -0.091479 4.535388 -0.459902
v 0.389886 4.535387 0.260514
v 0.459902 4.535387 -0.091480
v 0.468912 4.535387 -0.000000
v -0.091480 4.535387 0.459902
v -0.331571 4.535387 0.331571
v 0.433218 4.535387 0.179445
v 0.260514 4.535387 -0.389887
v 0.260513 4.535387 0.389886
v 0.179445 4.535387 -0.433219
v -0.433218 4.535388 -0.179445
v -0.331571 4.535388 -0.331571
v -0.260513 4.535388 -0.389886
v 0.179445 4.535387 0.433218
v -0.179445 4.535388 -0.433218
v -0.389886 4.535388 -0.260513
v 0.091480 4.535387 -0.459903
v 0.305954 4.588795 -0.363525
v 0.453125 4.549351 -0.139144
v 0.468588 4.541612 0.072510
v 0.442055 4.559324 0.172576
v 0.406471 4.582334 0.250996
v 0.149861 4.641274 0.450689
v -0.111080 4.686582 0.454192
v -0.242698 4.714310 0.389734
v -0.342882 4.732077 0.300989
v -0.435764 4.694184 0.140575
v -0.443768 4.776614 0.019816
v -0.350776 4.673580 -0.300452
v -0.200816 4.686121 -0.419446
v 0.308616 4.598415 0.363053
v -0.435764 4.694184 -0.140575
v 0.165716 4.694827 -0.449959
v -0.379399 4.942844 -0.052807
v -0.318370 4.864984 -0.280953
v 0.394593 4.565367 -0.259518
v -0.153499 4.894764 0.404908
v -0.366724 4.922973 0.137034
v -0.264361 5.034767 -0.223019
v -0.138741 4.868654 -0.417140
v 0.344608 4.751906 -0.413707
v 0.384460 4.685870 0.363345
v 0.293815 4.825798 0.449961
v 0.105511 4.932383 0.468035
v -0.133060 5.105048 0.307052
v -0.269993 5.062047 0.184982
v -0.087611 5.051543 -0.372080
v 0.144160 5.080844 -0.446066
v -0.005345 4.769420 -0.468875
v 0.416507 4.627386 -0.297748
v 0.045445 5.072918 0.420141
v -0.130475 5.256550 0.041328
v -0.196000 5.193028 -0.094378
v 0.221239 5.192501 0.413011
v 0.113118 5.298748 0.291264
v -0.048241 5.281879 0.182648
v 0.081441 5.393117 -0.046465
v 0.083568 5.334499 -0.223018
v -0.019606 5.205028 -0.306358
v 0.210783 5.424876 0.121903
v 0.278325 5.279162 -0.366888
v 0.468842 4.873425 -0.450338
v 0.468828 4.694171 -0.352494
v 0.468808 4.596284 0.233493
v 0.468883 5.065016 0.468650
v 0.281038 5.367943 0.280954
v 0.314940 5.460353 -0.046200
v 0.468200 5.428267 -0.225056
v 0.468912 5.248792 -0.409226
v 0.468906 5.052516 -0.469047
v 0.468884 4.568194 -0.187276
v 0.468926 4.734376 0.390666
v 0.468884 5.227756 0.415531
v 0.469054 5.477471 -0.000004
v 0.468923 4.941511 0.465163
v 0.468930 5.405324 0.253560
vt 0.740265 0.336063
vt 0.690213 0.250000
vt 0.766748 0.208622
vt 0.750924 0.450676
vt 0.694236 0.417170
vt 0.664509 0.334744
vt 0.640622 0.187500
vt 0.614256 0.312282
vt 0.546751 0.125000
vt 0.769692 0.125000
vt 0.640240 0.449955
vt 0.558614 0.312500
vt 0.520886 0.215772
vt 0.577740 0.449955
vt 0.540188 0.413604
vt 0.483573 0.345236
vt 0.418960 0.226100
vt 0.428899 0.037044
vt 0.630112 0.062500
vt 0.467883 0.450257
vt 0.421133 0.342599
vt 0.390240 0.449956
vt 0.360004 0.346015
vt 0.321954 0.276269
vt 0.343750 0.452032
vt 0.297145 0.422362
vt 0.258259 0.334745
vt 0.345184 0.125000
vt 0.159495 0.088041
vt 0.197275 0.214024
vt 0.218105 0.449956
vt 0.203165 0.344185
vt 0.718750 0.562500
vt 0.687500 0.562500
vt 0.140696 0.346199
vt 0.110346 0.219382
vt 0.044455 0.158210
vt 0.125309 0.450081
vt 0.078488 0.342141
vt 0.031343 0.250000
vt 0.046490 0.449956
vt 0.021199 0.339129
vt 0.015625 0.000000
vt 0.000000 0.088607
vt 1.000000 0.250000
vt 0.937336 0.219157
vt 1.000000 0.187500
vt 0.983990 0.449956
vt 0.922424 0.421517
vt 0.969717 0.344215
vt 0.874489 0.344434
vt 0.846551 0.246482
vt 0.875000 0.449122
vt 0.827740 0.449956
vt 0.797621 0.347897
vt 0.917296 0.088607
vt 0.765625 0.000000
vt 0.549642 0.562500
vt 0.531250 0.562500
vt 0.562500 0.562500
vt 0.125000 0.562500
vt 0.109616 0.562500
vt 0.093750 0.562500
vt 0.500000 0.562500
vt 0.468750 0.562500
vt 0.468750 0.562500
vt 0.062500 0.562500
vt 0.048239 0.562500
vt 0.031250 0.562500
vt 0.951761 0.562500
vt 0.937500 0.562500
vt 0.968750 0.562500
vt 0.375000 0.562500
vt 0.359742 0.562500
vt 0.343750 0.562500
vt 0.889809 0.562500
vt 0.875000 0.562500
vt 0.906250 0.562500
vt 0.312500 0.562500
vt 0.296974 0.562500
vt 0.281250 0.562500
vt 0.703744 0.562500
vt 0.825188 0.562500
vt 0.812500 0.562500
vt 0.843750 0.562500
vt 0.640680 0.562500
vt 0.625000 0.562500
vt 0.656250 0.562500
vt 0.218750 0.562500
vt 0.205476 0.562500
vt 0.187500 0.562500
vt 0.766626 0.562500
vt 0.750000 0.562500
vt 0.781250 0.562500
vt 1.000000 0.562500
vt 0.978599 0.562500
vt 0.898369 0.562500
vt 0.156250 0.562500
vt 0.162516 0.562500
vt 0.061669 0.562500
vt 0.047226 0.562500
vt 0.921731 0.562500
vt 0.968506 0.562500
vt 0.855684 0.562500
vt 0.831221 0.562500
vt 0.113842 0.562500
vt 0.885800 0.562500
vt 0.226840 0.562500
vt 0.172189 0.562500
vt 0.609499 0.562500
vt 0.593750 0.562500
vt 0.061981 0.562500
vt 0.013986 0.562500
vt 0.000000 0.562500
vt 0.806223 0.562500
vt 0.103071 0.562500
vt 1.000000 0.562500
vt 0.984364 0.562500
vt 0.921818 0.562500
vt 0.165690 0.562500
vt 0.039786 0.562500
vt 0.000000 0.562500
vt 0.702623 0.562500
vt 0.672284 0.562500
vt 0.860149 0.562500
vt 0.101632 0.562500
vt 0.764694 0.562500
vt 0.922217 0.562500
vt 0.271761 0.562500
vt 0.221523 0.562500
vt 0.297207 0.562500
vt 0.834805 0.562500
vt 0.015479 0.562500
vt 0.000000 0.562500
vt 0.345861 0.562500
vt 0.359060 0.562500
vt 0.171470 0.562500
vt 0.635183 0.562500
vt 0.564477 0.562500
vt 0.593750 0.562500
vt 0.437500 0.562500
vt 0.406250 0.562500
vt 0.294134 0.212941
vt 0.250000 0.562500
vt 0.156250 0.562500
vt 0.000000 0.375000
vt 0.000000 0.449956
vt 0.000000 0.562500
vt 1.000000 0.312500
vt 1.000000 0.562500
vt 0.437500 0.562500
vt 0.006550 0.562500
vt 0.406250 0.562500
vt 0.000000 0.562500
vt 0.416902 0.562500
vt 0.984364 0.562500
vt 0.089790 0.562500
vt 0.989700 0.562500
vn 0.0639 -0.6747 -0.7353
vn 0.1105 -0.3160 -0.9423
vn 0.2659 -0.4605 -0.8469
vn 0.1489 -0.8358 -0.5285
vn 0.4296 -0.6435 -0.6336
vn 0.2004 -0.9400 -0.2760
vn 0.6033 -0.3602 -0.7116
vn 0.6023 -0.7279 -0.3276
vn 0.8067 -0.3668 -0.4633
vn 0.7320 -0.6712 0.1168
vn 0.2273 -0.9737 -0.0165
vn 0.8882 -0.3585 0.2873
vn 0.7282 -0.3527 0.5877
vn 0.5116 -0.6650 0.5441
vn 0.4864 -0.3210 0.8126
vn 0.3688 -0.4598 0.8078
vn 0.2780 -0.4805 0.8318
vn 0.0390 -0.9715 0.2339
vn -0.0108 -0.8992 0.4373
vn -0.0896 -0.3628 0.9275
vn 0.2516 0.0004 -0.9678
vn -0.4217 -0.6654 0.6160
vn -0.3443 -0.8906 0.2971
vn -0.7182 -0.3636 0.5933
vn -0.6588 -0.6628 0.3559
vn -0.5545 -0.7952 0.2453
vn -0.8929 -0.3512 0.2818
vn -0.1022 -0.9944 0.0269
vn -0.5913 -0.8060 -0.0267
vn -0.9336 -0.2748 -0.2299
vn -0.7634 -0.4919 -0.4186
vn -0.6094 -0.6510 -0.4526
vn -0.7261 -0.3058 -0.6159
vn -0.4769 -0.3691 -0.7977
vn -0.2053 -0.6575 -0.7249
vn -0.0448 -0.9893 -0.1389
vn -0.0425 -0.9965 -0.0719
vn -0.1018 -0.3519 -0.9305
vn 0.8468 -0.4658 -0.2569
vn -0.7719 0.0541 0.6335
vn 0.9844 0.1468 -0.0970
vn 0.6728 -0.7369 0.0663
vn -0.9555 0.0556 0.2898
vn -0.9555 0.0556 -0.2898
vn 0.6269 -0.1532 0.7639
vn -0.7725 0.0354 -0.6340
vn 0.2894 -0.0766 0.9541
vn 0.2895 -0.0753 -0.9542
vn -0.4714 0.0137 -0.8818
vn 0.6266 -0.1563 -0.7635
vn -0.2903 -0.0015 0.9569
vn -0.0980 -0.0021 -0.9952
vn -0.9406 0.2807 -0.1912
vn -0.8557 0.1938 -0.4798
vn -0.6187 0.2430 0.7471
vn -0.7723 0.3557 0.5264
vn -0.8464 0.3922 -0.3603
vn -0.8007 0.5461 -0.2463
vn -0.5719 0.3434 -0.7450
vn -0.6810 0.3623 0.6363
vn -0.5776 0.5240 -0.6260
vn -0.2602 0.2100 0.9424
vn 0.7365 -0.5240 -0.4278
vn -0.4326 0.4146 0.8006
vn -0.6182 0.6286 0.4720
vn -0.7788 0.6215 0.0851
vn -0.3207 0.4894 -0.8110
vn -0.4710 0.6474 0.5992
vn -0.5694 0.8151 -0.1066
vn -0.5565 0.7154 -0.4225
vn -0.1414 0.2647 0.9539
vn -0.4440 0.8787 0.1753
vn 0.3337 -0.5679 -0.7524
vn -0.2923 0.5185 -0.8035
vn -0.3186 0.8390 0.4411
vn 0.0616 -0.1037 -0.9927
vn -0.1970 0.7957 -0.5728
vn -0.0680 -0.0282 0.9973
vn -0.1272 0.4408 -0.8886
vn -0.0909 0.2447 0.9653
vn -0.0613 0.1022 -0.9929
vn -0.1445 0.9825 0.1178
vn 0.0200 -0.5168 0.8558
vn 0.1405 -0.3351 0.9317
vn -0.0538 0.3098 0.9493
vn 0.3556 -0.7432 -0.5668
vn -0.1620 -0.8997 -0.4053
vn 0.5453 -0.8257 -0.1447
vn 0.0980 0.0016 -0.9952
vn 0.2477 -0.5583 -0.7918
vn 0.1369 -0.8533 -0.5031
vn 0.4550 0.0003 -0.8905
vn 0.7716 0.0005 -0.6361
vn 0.5055 -0.3123 -0.8043
vn 0.4319 -0.7030 -0.5650
vn 0.2545 -0.8933 -0.3704
vn 0.6344 0.0015 -0.7730
vn 0.9539 0.0006 -0.3002
vn 0.7353 -0.3006 -0.6074
vn 0.5686 -0.7492 -0.3397
vn 0.4855 -0.8337 -0.2630
vn 0.8819 0.0015 -0.4714
vn 0.8088 -0.3900 -0.4402
vn 0.9958 -0.0002 -0.0917
vn 0.7870 -0.6130 -0.0697
vn 0.4284 -0.8958 0.1186
vn 0.9583 -0.2854 -0.0176
vn 0.8782 -0.4598 -0.1320
vn 0.9952 0.0017 0.0980
vn 0.8940 0.0002 0.4480
vn 0.2974 -0.9498 0.0971
vn 0.9569 0.0016 0.2903
vn 0.7542 -0.6144 0.2318
vn 0.8692 -0.2518 0.4256
vn 0.6526 0.0008 0.7577
vn 0.7730 0.0015 0.6344
vn 0.6039 -0.6173 0.5043
vn 0.6331 -0.2718 0.7248
vn 0.3993 -0.7662 0.5034
vn 0.3610 -0.8163 0.4509
vn 0.4304 0.0007 0.9027
vn 0.0934 -0.0002 0.9956
vn 0.1401 -0.6340 0.7605
vn 0.2903 0.0009 0.9569
vn -0.0562 -0.6599 0.7493
vn 0.0336 -0.2858 0.9577
vn -0.0052 -0.8961 0.4439
vn -0.4699 -0.0003 0.8827
vn -0.0980 0.0017 0.9952
vn -0.2903 0.0016 0.9569
vn -0.3660 -0.6244 0.6901
vn -0.4525 -0.2634 0.8520
vn -0.8692 0.0002 0.4944
vn -0.6344 0.0017 0.7730
vn -0.2879 -0.8769 0.3849
vn -0.6084 -0.6142 0.5026
vn -0.7730 0.0016 0.6344
vn -0.8387 -0.2429 0.4874
vn -0.9540 -0.2942 0.0581
vn -0.9569 0.0015 0.2903
vn -0.7728 -0.5821 0.2527
vn -0.9950 0.0005 0.1002
vn -0.2741 -0.9589 0.0732
vn -0.7480 -0.6613 -0.0561
vn -0.4481 -0.8881 -0.1024
vn -0.9952 0.0015 -0.0980
vn -0.9540 0.0003 -0.2998
vn -0.3349 -0.8741 -0.3519
vn -0.8819 0.0010 -0.4714
vn -0.7118 -0.5835 -0.3910
vn -0.8018 0.0006 -0.5975
vn -0.6215 0.0008 -0.7834
vn -0.2722 0.0002 -0.9622
vn -0.5838 -0.2934 -0.7570
vn -0.4238 -0.5472 -0.7218
vn -0.2313 -0.8524 -0.4689
vn -0.4714 0.0015 -0.8819
vn -0.6454 0.0734 0.7603
vn -0.2520 -0.2389 -0.9378
vn -0.1110 -0.6320 -0.7670
vn -0.0980 0.0017 -0.9952
vn -0.8731 0.1070 0.4757
vn 0.9145 -0.2864 0.2858
vn -0.9878 0.1013 0.1185
vn 0.8653 -0.2045 0.4577
vn -0.9880 0.1141 -0.1041
vn 0.7543 -0.0863 0.6509
vn -0.8739 0.1059 -0.4745
vn 0.4788 -0.0038 0.8779
vn 0.1076 0.0064 -0.9942
vn -0.6263 0.0919 -0.7742
vn 0.1382 -0.0252 0.9901
vn 0.4933 -0.0342 -0.8692
vn -0.0953 0.0269 0.9951
vn -0.2748 0.0582 -0.9597
vn 0.7618 -0.0488 -0.6460
vn -0.4450 0.0598 0.8935
vn 0.8879 -0.0701 -0.4546
vn -0.6061 0.1981 -0.7703
vn -0.4141 0.1289 0.9010
vn -0.8601 0.2663 0.4351
vn -0.9248 0.2830 0.2545
vn -0.8815 0.3218 -0.3456
vn -0.8096 0.5813 0.0811
vn -0.6718 0.3733 0.6398
vn -0.9117 0.3978 0.1025
vn -0.2874 0.1098 -0.9515
vn 0.3828 -0.3080 0.8710
vn -0.3608 0.5415 0.7594
vn -0.6074 0.4227 -0.6726
vn 0.0679 -0.0490 0.9965
vn 0.2906 -0.3436 -0.8930
vn 0.5667 -0.3620 -0.7401
vn -0.2345 0.1825 -0.9548
vn -0.2568 0.1728 0.9509
vn 0.5580 -0.5693 -0.6038
vn 0.6026 -0.5246 0.6015
vn -0.6065 0.6426 -0.4683
vn 0.0364 -0.1043 0.9939
vn -0.3245 0.3108 -0.8934
vn -0.6763 0.6851 0.2707
vn 0.2577 -0.7089 0.6565
vn -0.4965 0.8574 0.1352
vn -0.5313 0.8021 -0.2727
vn -0.2152 0.6331 0.7436
vn -0.3645 0.8352 0.4118
vn 0.0625 -0.1082 -0.9922
vn -0.3045 0.6752 -0.6719
vn 0.3045 -0.8678 0.3928
vn -0.2766 0.9605 0.0313
vn -0.2383 0.9110 -0.3367
vn -0.0641 0.6451 0.7614
vn 0.0613 -0.6610 -0.7478
vn -0.0422 0.2913 -0.9557
vn 0.5003 -0.8200 0.2778
vn -0.0445 0.9760 -0.2132
vn -0.0409 0.7155 -0.6974
vn 0.2054 -0.4689 -0.8590
vn -0.0869 0.9465 0.3109
vn 0.0000 1.0000 0.0000
usemtl None
s off
f 52/1/1 5/2/1 2/3/1
f 52/1/2 1/4/2 3/5/2
f 52/1/3 3/5/3 4/6/3
f 5/2/4 9/7/4 2/3/4
f 4/6/5 8/8/5 5/2/5
f 9/7/6 16/9/6 6/10/6
f 7/11/7 8/8/7 4/6/7
f 8/8/8 13/12/8 15/13/8
f 10/14/9 12/15/9 8/8/9
f 14/16/10 19/17/10 15/13/10
f 16/9/11 25/18/11 11/19/11
f 14/16/12 17/20/12 18/21/12
f 21/22/13 23/23/13 18/21/13
f 23/23/14 24/24/14 19/17/14
f 22/25/15 26/26/15 23/23/15
f 23/23/16 26/26/16 24/24/16
f 24/24/17 26/26/17 28/27/17
f 25/18/18 27/28/18 39/29/18
f 32/30/19 39/29/19 27/28/19
f 30/31/20 31/32/20 28/27/20
f 3/5/21 1/4/21 83/33/21 76/34/21
f 33/35/22 35/36/22 32/30/22
f 39/29/23 35/36/23 41/37/23
f 34/38/24 36/39/24 33/35/24
f 36/39/25 40/40/25 35/36/25
f 35/36/26 40/40/26 41/37/26
f 37/41/27 38/42/27 36/39/27
f 25/43/28 39/29/28 46/44/28
f 40/45/29 45/46/29 41/47/29
f 42/48/30 44/49/30 43/50/30
f 43/50/31 44/49/31 48/51/31
f 48/51/32 50/52/32 45/46/32
f 44/49/33 47/53/33 48/51/33
f 49/54/34 51/55/34 48/51/34
f 50/52/35 51/55/35 2/3/35
f 6/10/36 11/19/36 46/56/36
f 25/57/37 46/56/37 11/19/37
f 1/4/38 52/1/38 51/55/38
f 85/58/39 69/59/39 55/60/39
f 72/61/40 92/62/40 63/63/40
f 69/59/41 85/58/41 70/64/41
f 70/64/42 86/65/42 59/66/42
f 54/67/43 93/68/43 56/69/43
f 98/70/44 77/71/44 66/72/44
f 20/73/45 97/74/45 75/75/45
f 95/76/46 78/77/46 82/78/46
f 80/79/47 89/80/47 58/81/47
f 99/82/48 76/34/48 83/33/48
f 96/83/49 81/84/49 79/85/49
f 84/86/50 53/87/50 74/88/50
f 71/89/51 90/90/51 60/91/51
f 115/92/52 64/93/52 67/94/52
f 94/95/53 100/96/53 98/70/53
f 98/70/54 101/97/54 95/76/54
f 91/98/55 103/99/55 92/62/55
f 112/100/56 104/101/56 92/62/56
f 100/96/57 105/102/57 101/97/57
f 119/103/58 105/102/58 100/96/58
f 113/104/59 106/105/59 101/97/59
f 111/106/60 112/100/60 103/99/60
f 125/107/61 113/104/61 105/102/61
f 110/108/62 117/109/62 103/99/62
f 116/110/63 85/58/63 102/111/63
f 117/109/64 111/106/64 103/99/64
f 111/106/65 122/112/65 112/100/65
f 118/113/66 119/114/66 112/100/66
f 125/107/67 114/115/67 113/104/67
f 121/116/68 122/112/68 111/106/68
f 118/117/69 123/118/69 119/103/69
f 124/119/70 125/107/70 119/103/70
f 110/108/71 120/120/71 117/109/71
f 126/121/72 123/122/72 122/112/72
f 128/123/73 107/124/73 99/82/73
f 127/125/74 114/115/74 125/107/74
f 121/116/75 132/126/75 126/121/75
f 136/127/76 128/123/76 115/92/76
f 134/128/77 127/125/77 124/119/77
f 141/129/78 131/130/78 109/131/78
f 127/125/79 135/132/79 114/115/79
f 131/130/80 120/120/80 110/108/80
f 114/115/81 136/127/81 115/92/81
f 140/133/82 133/134/82 126/121/82
f 138/135/83 109/131/83 108/136/83
f 138/135/84 141/129/84 109/131/84
f 131/130/85 139/137/85 120/120/85
f 129/138/86 137/139/86 116/110/86
f 137/139/87 85/58/87 116/110/87
f 85/58/88 137/139/88 70/64/88
f 64/93/89 83/33/89 1/4/89
f 52/1/90 4/6/90 5/2/90
f 6/10/91 2/3/91 9/7/91
f 7/11/92 3/5/92 76/34/92 74/88/92
f 10/14/93 7/11/93 53/87/93 65/140/93
f 3/5/94 7/11/94 4/6/94
f 9/7/95 5/2/95 8/8/95
f 6/10/96 16/9/96 11/19/96
f 74/88/97 53/87/97 7/11/97
f 12/15/98 10/14/98 55/60/98 69/59/98
f 7/11/99 10/14/99 8/8/99
f 9/7/100 8/8/100 15/13/100
f 9/7/101 15/13/101 16/9/101
f 65/140/102 55/60/102 10/14/102
f 13/12/103 8/8/103 12/15/103
f 17/20/104 12/15/104 69/59/104 70/64/104
f 13/12/105 14/16/105 15/13/105
f 19/17/106 27/28/106 16/9/106 15/13/106
f 12/15/107 17/20/107 14/16/107
f 13/12/108 12/15/108 14/16/108
f 70/64/109 59/66/109 17/20/109
f 21/22/110 17/20/110 73/141/110 68/142/110
f 25/18/111 16/9/111 27/28/111
f 59/66/112 73/141/112 17/20/112
f 14/16/113 18/21/113 19/17/113
f 17/20/114 21/22/114 18/21/114
f 22/25/115 21/22/115 20/73/115 75/75/115
f 68/142/116 20/73/116 21/22/116
f 18/21/117 23/23/117 19/17/117
f 21/22/118 22/25/118 23/23/118
f 19/17/119 24/24/119 29/143/119
f 19/17/120 29/143/120 27/28/120
f 80/79/121 26/26/121 22/25/121 75/75/121
f 30/31/122 26/26/122 58/81/122 62/144/122
f 24/24/123 28/27/123 29/143/123
f 80/79/124 58/81/124 26/26/124
f 32/30/125 29/143/125 28/27/125 31/32/125
f 26/26/126 30/31/126 28/27/126
f 27/28/127 29/143/127 32/30/127
f 34/38/128 30/31/128 60/91/128 61/145/128
f 62/144/129 71/89/129 30/31/129
f 71/89/130 60/91/130 30/31/130
f 31/32/131 33/35/131 32/30/131
f 33/35/132 31/32/132 30/31/132 34/38/132
f 37/41/133 34/38/133 63/63/133 54/67/133
f 34/38/134 61/145/134 72/61/134
f 39/29/135 32/30/135 35/36/135
f 33/35/136 36/39/136 35/36/136
f 72/61/137 63/63/137 34/38/137
f 34/38/138 37/41/138 36/39/138
f 43/146/139 38/42/139 37/41/139 42/147/139
f 54/67/140 56/69/140 37/41/140
f 36/39/141 38/42/141 40/40/141
f 42/147/142 37/41/142 56/69/142 57/148/142
f 39/29/143 41/37/143 46/44/143
f 43/50/144 45/46/144 40/45/144 38/149/144
f 41/47/145 45/46/145 46/56/145
f 57/150/146 66/72/146 42/48/146
f 44/49/147 42/48/147 66/72/147 77/71/147
f 6/10/148 46/56/148 45/46/148 50/52/148
f 77/71/149 82/78/149 44/49/149
f 43/50/150 48/51/150 45/46/150
f 47/53/151 44/49/151 82/78/151 78/77/151
f 49/54/152 47/53/152 78/77/152 79/85/152
f 1/4/153 49/54/153 81/84/153 67/94/153
f 47/53/154 49/54/154 48/51/154
f 50/52/155 48/51/155 51/55/155
f 6/10/156 50/52/156 2/3/156
f 79/85/157 81/84/157 49/54/157
f 92/62/158 72/61/158 61/145/158 91/98/158
f 49/54/159 1/4/159 51/55/159
f 2/3/160 51/55/160 52/1/160
f 1/4/161 67/94/161 64/93/161
f 93/68/162 54/67/162 63/63/162 92/62/162
f 87/151/163 73/141/163 59/66/163 86/65/163
f 94/152/164 57/148/164 56/69/164 93/68/164
f 88/153/165 68/142/165 73/141/165 87/151/165
f 66/72/166 57/150/166 94/95/166 98/70/166
f 97/74/167 20/73/167 68/142/167 88/153/167
f 82/78/168 77/71/168 98/70/168 95/76/168
f 89/80/169 80/79/169 75/75/169 97/74/169
f 83/33/170 64/93/170 115/92/170 99/82/170
f 79/85/171 78/77/171 95/76/171 96/83/171
f 110/108/172 62/144/172 58/81/172 89/80/172
f 74/88/173 76/34/173 99/82/173 84/86/173
f 90/90/174 71/89/174 62/144/174 110/108/174
f 67/94/175 81/84/175 96/83/175 115/92/175
f 65/140/176 53/87/176 84/86/176 102/111/176
f 91/98/177 61/145/177 60/91/177 90/90/177
f 55/60/178 65/140/178 102/111/178 85/58/178
f 96/83/179 95/76/179 101/97/179 106/105/179
f 90/90/180 103/99/180 91/98/180
f 92/62/181 104/101/181 93/68/181
f 104/101/182 94/152/182 93/68/182
f 100/96/183 101/97/183 98/70/183
f 100/154/184 104/101/184 112/100/184 119/114/184
f 103/99/185 112/100/185 92/62/185
f 104/101/186 100/154/186 94/152/186
f 96/83/187 106/105/187 115/92/187
f 109/131/188 89/80/188 97/74/188 108/136/188
f 111/106/189 117/109/189 120/120/189 121/116/189
f 105/102/190 113/104/190 101/97/190
f 89/80/191 109/131/191 110/108/191
f 99/82/192 107/124/192 84/86/192
f 107/124/193 116/110/193 84/86/193
f 106/105/194 114/115/194 115/92/194
f 90/90/195 110/108/195 103/99/195
f 84/86/196 116/110/196 102/111/196
f 88/153/197 108/136/197 97/74/197
f 119/103/198 125/107/198 105/102/198
f 109/131/199 131/130/199 110/108/199
f 113/104/200 114/115/200 106/105/200
f 122/112/201 118/113/201 112/100/201
f 108/136/202 88/153/202 130/155/202 138/135/202
f 122/112/203 123/122/203 118/113/203
f 119/103/204 123/118/204 124/119/204
f 120/120/205 132/126/205 121/116/205
f 121/116/206 126/121/206 122/112/206
f 115/92/207 128/123/207 99/82/207
f 124/119/208 127/125/208 125/107/208
f 87/151/209 130/155/209 88/153/209
f 126/121/210 133/134/210 123/122/210
f 134/128/211 124/119/211 123/118/211 133/156/211
f 132/126/212 120/120/212 139/137/212 142/157/212
f 107/124/213 129/138/213 116/110/213
f 135/132/214 136/127/214 114/115/214
f 86/65/215 130/155/215 87/151/215
f 133/156/216 140/158/216 134/128/216
f 134/128/217 135/132/217 127/125/217
f 128/123/218 129/138/218 107/124/218
f 126/121/219 132/126/219 142/157/219 140/133/219
f 80/79/220 75/75/220 20/73/220 68/142/220 73/141/220 59/66/220 70/64/220 69/59/220 55/60/220 65/140/220 53/87/220 74/88/220 76/34/220 83/33/220 64/93/220 67/94/220 81/84/220 79/85/220 78/77/220 82/78/220 77/71/220 66/72/220 57/148/220 56/69/220 54/67/220 63/63/220 72/61/220 61/145/220 60/91/220 71/89/220 62/144/220 58/81/220
