# Blender v2.79 (sub 7) OBJ File: 'arrowCW.blend'
# www.blender.org
mtllib arrowCW.mtl
o Cube.002_Cube.003
v -0.923137 0.060320 -2.774581
v -0.923115 -0.060320 -2.774580
v -0.713444 0.060320 -2.295757
v -0.713444 -0.060320 -2.295757
v -1.386805 0.060320 -2.519409
v -1.386784 -0.060320 -2.519412
v -1.096901 0.060320 -2.084439
v -1.096900 -0.060320 -2.084440
v -1.799901 0.060320 -2.190894
v -1.799879 -0.060320 -2.190900
v -1.439029 0.060320 -1.812720
v -1.439028 -0.060320 -1.812721
v -2.148466 0.060320 -1.794956
v -2.148446 -0.060320 -1.794966
v -1.727593 0.060320 -1.484939
v -1.727592 -0.060320 -1.484941
v -2.422290 0.060320 -1.342483
v -2.422272 -0.060320 -1.342496
v -1.953903 0.060320 -1.110411
v -1.953902 -0.060320 -1.110413
v -2.616415 0.060320 -0.849038
v -2.616400 -0.060320 -0.849053
v -2.114657 0.060320 -0.702467
v -2.114657 -0.060320 -0.702468
v -2.720340 0.060320 -0.329987
v -2.720328 -0.060320 -0.330004
v -2.200716 0.060320 -0.273114
v -2.200716 -0.060320 -0.273116
v -2.730954 0.060320 0.195449
v -2.730945 -0.060320 0.195429
v -2.209282 0.060320 0.162254
v -2.209282 -0.060320 0.162253
v -2.652615 0.060320 0.717782
v -2.652609 -0.060320 0.717760
v -2.144609 0.060320 0.594596
v -2.144610 -0.060320 0.594595
v -2.482884 0.060320 1.220236
v -2.482883 -0.060320 1.220214
v -2.004272 0.060320 1.010059
v -2.004273 -0.060320 1.010058
v -2.227308 0.060320 1.683672
v -2.227311 -0.060320 1.683651
v -1.792630 0.060320 1.393330
v -1.792630 -0.060320 1.393330
v -1.898429 0.060320 2.096482
v -1.898435 -0.060320 2.096460
v -1.520617 0.060320 1.735230
v -1.520618 -0.060320 1.735230
v -1.502043 0.060320 2.444551
v -1.502053 -0.060320 2.444532
v -1.192451 0.060320 2.023367
v -1.192451 -0.060320 2.023366
v -1.049322 0.060320 2.717982
v -1.049335 -0.060320 2.717964
v -0.817725 0.060320 2.249359
v -0.817726 -0.060320 2.249359
v -0.555694 0.060320 2.911676
v -0.555709 -0.060320 2.911660
v -0.409634 0.060320 2.409769
v -0.409634 -0.060320 2.409768
v -0.036536 0.060320 3.014942
v -0.036555 -0.060320 3.014931
v 0.019818 0.060320 2.495263
v 0.019817 -0.060320 2.495263
v 0.488909 0.060320 3.025093
v 0.488889 -0.060320 3.025084
v 0.455194 0.060320 2.503454
v 0.455193 -0.060320 2.503455
v 1.011203 0.060320 2.946293
v 1.011181 -0.060320 2.946288
v 0.887504 0.060320 2.438413
v 0.887502 -0.060320 2.438413
v 1.513444 0.060320 2.775927
v 1.513422 -0.060320 2.775925
v 1.302784 0.060320 2.297529
v 1.302783 -0.060320 2.297528
v 1.976651 0.060320 2.519946
v 1.976629 -0.060320 2.519948
v 1.685872 0.060320 2.085560
v 1.685871 -0.060320 2.085560
v 2.389175 0.060320 2.190704
v 2.389153 -0.060320 2.190710
v 2.027545 0.060320 1.813255
v 2.027544 -0.060320 1.813256
v 2.736749 0.060320 1.793870
v 2.736730 -0.060320 1.793880
v 2.315254 0.060320 1.484702
v 2.315253 -0.060320 1.484703
v 3.009787 0.060320 1.340899
v 3.009769 -0.060320 1.340912
v 2.540931 0.060320 1.109777
v 2.540931 -0.060320 1.109778
v 3.203049 0.060320 0.847090
v 3.203034 -0.060320 0.847105
v 2.700994 0.060320 0.701539
v 2.700995 -0.060320 0.701540
v 3.305660 0.060320 0.327828
v 3.305648 -0.060320 0.327846
v 2.785923 0.060320 0.271990
v 2.785923 -0.060320 0.271991
v 3.315347 0.060320 -0.197626
v 3.315338 -0.060320 -0.197608
v 2.793741 0.060320 -0.163394
v 2.793741 -0.060320 -0.163393
v 3.236087 0.060320 -0.719884
v 3.236081 -0.060320 -0.719862
v 2.728332 0.060320 -0.595671
v 2.728332 -0.060320 -0.595670
v 3.065085 0.060320 -1.221915
v 3.065083 -0.060320 -1.221894
v 2.586899 0.060320 -1.010771
v 2.586899 -0.060320 -1.010770
v 2.808699 0.060320 -1.684892
v 2.808701 -0.060320 -1.684870
v 2.374607 0.060320 -1.393674
v 2.374607 -0.060320 -1.393674
v 2.479096 0.060320 -2.097128
v 2.479102 -0.060320 -2.097107
v 2.102009 0.060320 -1.735120
v 2.102010 -0.060320 -1.735120
v 2.081814 0.060320 -2.444208
v 2.081824 -0.060320 -2.444189
v 1.773071 0.060320 -2.022401
v 1.773072 -0.060320 -2.022401
v 1.556019 -0.060474 -2.434160
v 1.583316 -0.060484 -2.485846
v 1.624421 -0.060489 -2.527403
v 1.678321 -0.060486 -2.557808
v 1.743687 -0.060477 -2.576313
v 1.818912 -0.060461 -2.582462
v 1.743637 0.060163 -2.576384
v 1.678270 0.060154 -2.557880
v 1.624371 0.060151 -2.527474
v 1.583266 0.060156 -2.485917
v 1.555968 0.060166 -2.434232
v 1.542921 0.060183 -2.373654
v 1.543427 -0.060457 -2.373654
v 1.551693 -0.060433 -2.309969
v 1.551475 0.060206 -2.310014
v 1.569852 0.060237 -2.229885
v 1.853442 -0.060450 -2.574034
v 1.902212 -0.060432 -2.553504
v 1.960450 -0.060408 -2.522882
v 2.022454 -0.060381 -2.485166
v 1.569736 -0.060403 -2.229789
v 1.715988 -0.060314 -2.067030
v 1.662539 -0.060343 -2.114523
v 1.617627 -0.060368 -2.160372
v 1.585650 -0.060389 -2.200090
v 1.818862 0.060179 -2.582533
v 2.022404 0.060259 -2.485237
v 1.960401 0.060232 -2.522953
v 1.902163 0.060208 -2.553575
v 1.853392 0.060190 -2.574105
v 1.585856 0.060251 -2.200199
v 1.617912 0.060272 -2.160493
v 1.662884 0.060297 -2.114652
v 1.716369 0.060326 -2.067165
v -0.987402 0.059857 -2.807219
v -0.927212 -0.060143 -0.474067
v -0.970614 -0.060143 -0.427258
v -1.015305 -0.060143 -0.394641
v -1.060183 -0.060143 -0.377019
v -1.104144 -0.060143 -0.374827
v -1.146105 -0.060143 -0.388117
v -1.185033 -0.060143 -0.416564
v -1.219970 -0.060143 -0.459465
v -1.250054 -0.060143 -0.515767
v -1.250055 0.059857 -0.515767
v -1.219970 0.059857 -0.459466
v -1.185033 0.059857 -0.416564
v -1.146105 0.059857 -0.388118
v -1.104144 0.059857 -0.374827
v -1.060183 0.059857 -0.377020
v -1.015305 0.059857 -0.394642
v -0.970614 0.059857 -0.427258
v -0.927212 0.059857 -0.474067
v -2.932173 -0.060143 -2.696864
v -2.978982 -0.060143 -2.740266
v -3.011599 -0.060143 -2.784957
v -3.029221 -0.060143 -2.829835
v -3.031413 -0.060143 -2.873796
v -3.018123 -0.060143 -2.915757
v -2.989676 -0.060143 -2.954685
v -2.946774 -0.060143 -2.989622
v -2.890474 -0.060143 -3.019706
v -2.890473 0.059857 -3.019706
v -2.946774 0.059857 -2.989622
v -2.989676 0.059857 -2.954685
v -3.018122 0.059857 -2.915757
v -3.031413 0.059857 -2.873796
v -3.029220 0.059857 -2.829835
v -3.011599 0.059857 -2.784957
v -2.978982 0.059857 -2.740266
v -2.932173 0.059857 -2.696864
v -0.987402 -0.060143 -2.807218
v -0.649179 -0.060143 -2.368729
v -0.646120 -0.060143 -2.430047
v -0.652693 -0.060143 -2.491145
v -0.668743 -0.060143 -2.550462
v -0.693874 -0.060143 -2.606538
v -0.727468 -0.060143 -2.657992
v -0.768698 -0.060143 -2.703558
v -0.816549 -0.060143 -2.742113
v -0.869841 -0.060143 -2.772707
v -0.927264 -0.060143 -2.794589
v -0.649186 0.059857 -2.368673
v -0.927263 0.059857 -2.794589
v -0.869841 0.059857 -2.772708
v -0.816549 0.059857 -2.742113
v -0.768698 0.059857 -2.703558
v -0.727468 0.059857 -2.657993
v -0.693874 0.059857 -2.606538
v -0.668743 0.059857 -2.550462
v -0.652693 0.059857 -2.491145
v -0.646120 0.059857 -2.430047
v -2.817730 -0.060143 -2.648767
v -2.923111 -0.060143 -2.690649
v -2.842489 -0.060143 -2.654116
v -2.871210 -0.060143 -2.663954
v -2.899521 -0.060143 -2.676783
v -2.923111 0.059857 -2.690649
v -2.817729 0.059857 -2.648766
v -2.899520 0.059857 -2.676783
v -2.871209 0.059857 -2.663954
v -2.842488 0.059857 -2.654116
v -2.880130 -0.060143 -3.023415
v -2.767565 -0.060143 -3.037147
v -2.853791 -0.060143 -3.030832
v -2.823149 -0.060143 -3.036046
v -2.792871 -0.060143 -3.038263
v -2.767565 0.059857 -3.037147
v -2.880130 0.059857 -3.023415
v -2.792870 0.059857 -3.038264
v -2.823148 0.059857 -3.036046
v -2.853790 0.059857 -3.030832
v -1.259218 -0.060143 -0.541325
v -1.258523 -0.060143 -0.708138
v -1.263864 -0.060143 -0.567130
v -1.265364 -0.060143 -0.607893
v -1.263488 -0.060143 -0.657409
v -0.911855 0.059857 -0.496458
v -0.870142 0.059857 -0.657974
v -0.900805 0.059857 -0.520236
v -0.888997 0.059857 -0.559281
v -0.878230 0.059857 -0.607648
v -0.870142 -0.060143 -0.657973
v -0.911855 -0.060143 -0.496458
v -0.878230 -0.060143 -0.607647
v -0.888997 -0.060143 -0.559280
v -0.900805 -0.060143 -0.520236
v -1.258523 0.059857 -0.708138
v -1.259218 0.059857 -0.541325
v -1.263488 0.059857 -0.657409
v -1.265364 0.059857 -0.607893
v -1.263864 0.059857 -0.567130
vn 0.9160 0.0001 -0.4011
vn -0.4821 -0.0001 -0.8761
vn 0.4826 -0.0000 0.8758
vn 0.0000 -1.0000 -0.0000
vn 0.0000 1.0000 -0.0000
vn -0.8321 -0.0001 0.5546
vn -0.6224 -0.0001 -0.7827
vn 0.6219 0.0000 0.7831
vn 0.7235 0.0001 -0.6904
vn -0.7506 -0.0001 -0.6608
vn 0.7506 -0.0000 0.6608
vn 0.5931 0.0001 -0.8051
vn -0.8555 -0.0001 -0.5177
vn 0.8559 -0.0000 0.5172
vn 0.4440 0.0001 -0.8960
vn -0.9306 -0.0001 -0.3661
vn 0.9304 -0.0000 0.3666
vn 0.2804 0.0001 -0.9599
vn -0.9805 -0.0001 -0.1963
vn 0.9805 -0.0000 0.1965
vn 0.1088 0.0001 -0.9941
vn -0.9998 -0.0001 -0.0202
vn 0.9998 -0.0000 0.0197
vn -0.0635 0.0001 -0.9980
vn -0.9889 -0.0001 0.1483
vn 0.9890 0.0000 -0.1479
vn -0.2356 0.0001 -0.9718
vn -0.9474 -0.0001 0.3200
vn 0.9474 -0.0000 -0.3200
vn -0.4021 0.0001 -0.9156
vn -0.8757 -0.0001 0.4829
vn 0.8754 -0.0000 -0.4834
vn -0.5554 0.0001 -0.8316
vn -0.7821 -0.0001 0.6231
vn 0.7825 -0.0000 -0.6226
vn -0.6911 0.0001 -0.7228
vn -0.6598 -0.0001 0.7514
vn 0.6598 0.0000 -0.7515
vn -0.8057 0.0001 -0.5923
vn -0.5170 -0.0001 0.8560
vn 0.5164 0.0000 -0.8563
vn -0.8965 0.0001 -0.4431
vn -0.3653 -0.0001 0.9309
vn 0.3658 0.0000 -0.9307
vn -0.9602 0.0001 -0.2794
vn -0.1951 -0.0001 0.9808
vn 0.1952 0.0000 -0.9808
vn 0.9942 -0.0001 0.1078
vn -0.0193 -0.0001 0.9998
vn 0.0188 -0.0000 -0.9998
vn 0.9979 -0.0001 -0.0645
vn 0.1492 -0.0001 0.9888
vn -0.1488 -0.0000 -0.9889
vn 0.9716 -0.0001 -0.2366
vn 0.3212 -0.0001 0.9470
vn -0.3213 0.0000 -0.9470
vn 0.9152 -0.0001 -0.4030
vn 0.4837 -0.0001 0.8752
vn -0.4841 0.0000 -0.8750
vn 0.8310 -0.0001 -0.5563
vn 0.6238 -0.0001 0.7816
vn -0.6233 0.0000 -0.7820
vn -0.7221 0.0001 0.6918
vn 0.7522 -0.0001 0.6589
vn -0.7523 -0.0000 -0.6588
vn -0.5915 0.0001 0.8063
vn 0.8564 -0.0001 0.5162
vn -0.8568 -0.0000 -0.5157
vn -0.4422 0.0001 0.8969
vn 0.9312 -0.0001 0.3645
vn -0.9310 -0.0000 -0.3650
vn -0.2785 0.0001 0.9604
vn 0.9810 -0.0001 0.1939
vn -0.9810 -0.0000 -0.1940
vn -0.1068 0.0001 0.9943
vn 0.9998 -0.0001 0.0184
vn -0.9998 -0.0000 -0.0180
vn 0.0655 0.0001 0.9979
vn 0.9887 -0.0001 -0.1500
vn -0.9887 -0.0000 0.1496
vn 0.2376 0.0001 0.9714
vn 0.9466 -0.0001 -0.3224
vn -0.9466 0.0000 0.3225
vn 0.4039 0.0001 0.9148
vn 0.8748 -0.0001 -0.4845
vn -0.8746 0.0000 0.4849
vn 0.5571 0.0001 0.8304
vn 0.7810 -0.0001 -0.6245
vn -0.7815 -0.0000 0.6239
vn 0.6925 0.0001 0.7214
vn 0.6579 -0.0001 -0.7531
vn -0.6578 0.0000 0.7532
vn -0.9783 -0.0023 -0.2071
vn -0.8842 -0.0006 -0.4670
vn -0.7110 -0.0007 -0.7032
vn -0.4913 -0.0007 -0.8710
vn -0.2724 -0.0007 -0.9622
vn -0.0815 -0.0006 -0.9967
vn -0.9752 -0.0003 0.2215
vn -0.9914 -0.0030 0.1310
vn -0.6641 0.0028 0.7477
vn -0.7141 0.0026 0.7000
vn -0.7785 0.0022 0.6276
vn -0.8808 0.0016 0.4734
vn 0.2371 -0.0005 -0.9715
vn 0.3880 -0.0004 -0.9217
vn 0.4654 -0.0003 -0.8851
vn 0.5197 -0.0003 -0.8543
vn 0.5681 -0.0002 -0.8229
vn -0.6178 0.0014 0.7864
vn 0.0002 -1.0000 0.0003
vn -0.0002 1.0000 -0.0003
vn -0.1281 -0.0002 0.9918
vn -0.9918 0.0000 -0.1281
vn -0.3375 0.0000 -0.9413
vn 0.9918 0.0000 0.1281
vn 0.7333 0.0000 0.6799
vn 0.5895 0.0000 0.8078
vn 0.3655 0.0000 0.9308
vn 0.0498 0.0000 0.9988
vn -0.3019 0.0000 0.9533
vn -0.5900 0.0000 0.8074
vn -0.7754 0.0000 0.6315
vn -0.8820 0.0000 0.4713
vn -0.6799 0.0000 0.7333
vn -0.8078 0.0000 0.5895
vn -0.9308 0.0000 0.3655
vn -0.9988 0.0000 0.0498
vn -0.9533 0.0000 -0.3019
vn -0.8074 0.0000 -0.5900
vn -0.6314 0.0000 -0.7754
vn -0.4713 0.0000 -0.8820
vn 0.1281 -0.0000 -0.9918
vn 0.8247 0.0000 0.5656
vn 0.9988 0.0000 0.0499
vn 0.9943 0.0000 -0.1070
vn 0.9653 0.0000 -0.2612
vn 0.9125 -0.0000 -0.4090
vn 0.8373 -0.0000 -0.5467
vn 0.7415 -0.0000 -0.6709
vn 0.6274 -0.0000 -0.7787
vn 0.4979 -0.0000 -0.8672
vn 0.3561 -0.0000 -0.9345
vn 0.2055 -0.0000 -0.9787
vn 0.0441 -0.0000 -0.9990
vn -0.0731 -0.0000 -0.9973
vn -0.1677 0.0000 -0.9858
vn -0.2710 0.0000 -0.9626
vn -0.5067 -0.0000 0.8621
vn -0.4127 -0.0000 0.9109
vn -0.3241 -0.0000 0.9460
vn -0.2112 -0.0000 0.9774
vn -0.5656 0.0000 0.8247
vn -0.9842 -0.0000 0.1772
vn -0.9993 0.0000 0.0368
vn -0.9993 -0.0000 -0.0378
vn -0.9952 0.0000 -0.0974
vn 0.9873 -0.0000 0.1587
vn 0.9761 0.0000 0.2173
vn 0.9572 0.0000 0.2895
vn 0.9069 -0.0000 0.4215
vn -0.9413 -0.0000 0.3375
usemtl Material
s off
f 2//1 1//1 3//1 4//1
f 6//2 5//2 1//2 2//2
f 3//3 7//3 8//3 4//3
f 8//4 6//4 2//4 4//4
f 3//5 1//5 5//5 7//5
f 6//6 8//6 7//6 5//6
f 10//7 9//7 5//7 6//7
f 7//8 11//8 12//8 8//8
f 12//4 10//4 6//4 8//4
f 7//5 5//5 9//5 11//5
f 10//9 9//9 11//9 12//9
f 14//10 13//10 9//10 10//10
f 11//11 15//11 16//11 12//11
f 16//4 14//4 10//4 12//4
f 11//5 9//5 13//5 15//5
f 14//12 13//12 15//12 16//12
f 18//13 17//13 13//13 14//13
f 15//14 19//14 20//14 16//14
f 20//4 18//4 14//4 16//4
f 15//5 13//5 17//5 19//5
f 18//15 17//15 19//15 20//15
f 22//16 21//16 17//16 18//16
f 19//17 23//17 24//17 20//17
f 24//4 22//4 18//4 20//4
f 19//5 17//5 21//5 23//5
f 22//18 21//18 23//18 24//18
f 26//19 25//19 21//19 22//19
f 23//20 27//20 28//20 24//20
f 28//4 26//4 22//4 24//4
f 23//5 21//5 25//5 27//5
f 26//21 25//21 27//21 28//21
f 30//22 29//22 25//22 26//22
f 27//23 31//23 32//23 28//23
f 32//4 30//4 26//4 28//4
f 27//5 25//5 29//5 31//5
f 30//24 29//24 31//24 32//24
f 34//25 33//25 29//25 30//25
f 31//26 35//26 36//26 32//26
f 36//4 34//4 30//4 32//4
f 31//5 29//5 33//5 35//5
f 34//27 33//27 35//27 36//27
f 38//28 37//28 33//28 34//28
f 35//29 39//29 40//29 36//29
f 40//4 38//4 34//4 36//4
f 35//5 33//5 37//5 39//5
f 38//30 37//30 39//30 40//30
f 42//31 41//31 37//31 38//31
f 39//32 43//32 44//32 40//32
f 44//4 42//4 38//4 40//4
f 39//5 37//5 41//5 43//5
f 42//33 41//33 43//33 44//33
f 46//34 45//34 41//34 42//34
f 43//35 47//35 48//35 44//35
f 48//4 46//4 42//4 44//4
f 43//5 41//5 45//5 47//5
f 46//36 45//36 47//36 48//36
f 50//37 49//37 45//37 46//37
f 47//38 51//38 52//38 48//38
f 52//4 50//4 46//4 48//4
f 47//5 45//5 49//5 51//5
f 50//39 49//39 51//39 52//39
f 54//40 53//40 49//40 50//40
f 51//41 55//41 56//41 52//41
f 56//4 54//4 50//4 52//4
f 51//5 49//5 53//5 55//5
f 54//42 53//42 55//42 56//42
f 58//43 57//43 53//43 54//43
f 55//44 59//44 60//44 56//44
f 60//4 58//4 54//4 56//4
f 55//5 53//5 57//5 59//5
f 58//45 57//45 59//45 60//45
f 62//46 61//46 57//46 58//46
f 59//47 63//47 64//47 60//47
f 64//4 62//4 58//4 60//4
f 59//5 57//5 61//5 63//5
f 62//48 64//48 63//48 61//48
f 66//49 65//49 61//49 62//49
f 63//50 67//50 68//50 64//50
f 68//4 66//4 62//4 64//4
f 63//5 61//5 65//5 67//5
f 66//51 68//51 67//51 65//51
f 70//52 69//52 65//52 66//52
f 67//53 71//53 72//53 68//53
f 72//4 70//4 66//4 68//4
f 67//5 65//5 69//5 71//5
f 70//54 72//54 71//54 69//54
f 74//55 73//55 69//55 70//55
f 71//56 75//56 76//56 72//56
f 76//4 74//4 70//4 72//4
f 71//5 69//5 73//5 75//5
f 74//57 76//57 75//57 73//57
f 78//58 77//58 73//58 74//58
f 75//59 79//59 80//59 76//59
f 80//4 78//4 74//4 76//4
f 75//5 73//5 77//5 79//5
f 78//60 80//60 79//60 77//60
f 82//61 81//61 77//61 78//61
f 79//62 83//62 84//62 80//62
f 84//4 82//4 78//4 80//4
f 79//5 77//5 81//5 83//5
f 82//63 81//63 83//63 84//63
f 86//64 85//64 81//64 82//64
f 83//65 87//65 88//65 84//65
f 88//4 86//4 82//4 84//4
f 83//5 81//5 85//5 87//5
f 86//66 85//66 87//66 88//66
f 90//67 89//67 85//67 86//67
f 87//68 91//68 92//68 88//68
f 92//4 90//4 86//4 88//4
f 87//5 85//5 89//5 91//5
f 90//69 89//69 91//69 92//69
f 94//70 93//70 89//70 90//70
f 91//71 95//71 96//71 92//71
f 96//4 94//4 90//4 92//4
f 91//5 89//5 93//5 95//5
f 94//72 93//72 95//72 96//72
f 98//73 97//73 93//73 94//73
f 95//74 99//74 100//74 96//74
f 100//4 98//4 94//4 96//4
f 95//5 93//5 97//5 99//5
f 98//75 97//75 99//75 100//75
f 102//76 101//76 97//76 98//76
f 99//77 103//77 104//77 100//77
f 104//4 102//4 98//4 100//4
f 99//5 97//5 101//5 103//5
f 102//78 101//78 103//78 104//78
f 106//79 105//79 101//79 102//79
f 103//80 107//80 108//80 104//80
f 108//4 106//4 102//4 104//4
f 103//5 101//5 105//5 107//5
f 106//81 105//81 107//81 108//81
f 110//82 109//82 105//82 106//82
f 107//83 111//83 112//83 108//83
f 112//4 110//4 106//4 108//4
f 107//5 105//5 109//5 111//5
f 110//84 109//84 111//84 112//84
f 114//85 113//85 109//85 110//85
f 111//86 115//86 116//86 112//86
f 116//4 114//4 110//4 112//4
f 111//5 109//5 113//5 115//5
f 114//87 113//87 115//87 116//87
f 118//88 117//88 113//88 114//88
f 115//89 119//89 120//89 116//89
f 120//4 118//4 114//4 116//4
f 115//5 113//5 117//5 119//5
f 118//90 117//90 119//90 120//90
f 122//91 121//91 117//91 118//91
f 119//92 123//92 124//92 120//92
f 124//4 122//4 118//4 120//4
f 119//5 117//5 121//5 123//5
f 125//93 137//93 136//93 135//93
f 126//94 125//94 135//94 134//94
f 127//95 126//95 134//95 133//95
f 128//96 127//96 133//96 132//96
f 129//97 128//97 132//97 131//97
f 130//98 129//98 131//98 150//98
f 145//99 140//99 139//99 138//99
f 138//100 139//100 136//100 137//100
f 146//101 158//101 157//101 147//101
f 147//102 157//102 156//102 148//102
f 148//103 156//103 155//103 149//103
f 149//104 155//104 140//104 145//104
f 130//105 150//105 154//105 141//105
f 141//106 154//106 153//106 142//106
f 142//107 153//107 152//107 143//107
f 143//108 152//108 151//108 144//108
f 122//109 144//109 151//109 121//109
f 124//110 123//110 158//110 146//110
f 124//111 146//111 147//111 148//111 149//111 145//111 138//111 137//111 125//111 126//111 127//111 128//111 129//111 130//111 141//111 142//111 143//111 144//111 122//111
f 121//112 151//112 152//112 153//112 154//112 150//112 131//112 132//112 133//112 134//112 135//112 136//112 139//112 140//112 155//112 156//112 157//112 158//112 123//112
f 196//4 206//4 205//4 204//4 203//4 202//4 201//4 200//4 199//4 198//4 197//4
f 217//113 197//113 207//113 223//113
f 196//114 238//114 252//114 159//114
f 227//115 186//115 187//115 233//115
f 252//5 254//5 255//5 256//5 253//5 169//5 170//5 171//5 172//5 173//5 174//5 175//5 176//5 177//5 242//5 244//5 245//5 246//5 243//5 207//5 213//5 212//5 211//5 210//5 209//5 208//5 159//5
f 197//116 207//116 243//116 247//116
f 161//117 160//117 177//117 176//117
f 162//118 161//118 176//118 175//118
f 163//119 162//119 175//119 174//119
f 164//120 163//120 174//120 173//120
f 165//121 164//121 173//121 172//121
f 166//122 165//122 172//122 171//122
f 167//123 166//123 171//123 170//123
f 168//124 167//124 170//124 169//124
f 197//4 247//4 249//4 250//4 251//4 248//4 160//4 161//4 162//4 163//4 164//4 165//4 166//4 167//4 168//4 237//4 239//4 240//4 241//4 238//4 196//4
f 196//4 197//4 217//4 219//4 220//4 221//4 218//4 178//4 179//4 180//4 181//4 182//4 183//4 184//4 185//4 186//4 227//4 229//4 230//4 231//4 228//4
f 179//125 178//125 195//125 194//125
f 180//126 179//126 194//126 193//126
f 192//127 181//127 180//127 193//127
f 182//128 181//128 192//128 191//128
f 183//129 182//129 191//129 190//129
f 184//130 183//130 190//130 189//130
f 185//131 184//131 189//131 188//131
f 186//132 185//132 188//132 187//132
f 232//133 159//133 196//133 228//133
f 207//5 216//5 215//5 214//5 213//5
f 160//134 248//134 242//134 177//134
f 187//5 188//5 189//5 190//5 191//5 192//5 193//5 194//5 195//5 222//5 224//5 225//5 226//5 223//5 207//5 213//5 212//5 211//5 210//5 209//5 208//5 159//5 232//5 234//5 235//5 236//5 233//5
f 207//135 197//135 198//135 216//135
f 216//136 198//136 199//136 215//136
f 215//137 199//137 200//137 214//137
f 214//138 200//138 201//138 213//138
f 213//139 201//139 202//139 212//139
f 212//140 202//140 203//140 211//140
f 211//141 203//141 204//141 210//141
f 210//142 204//142 205//142 209//142
f 209//143 205//143 206//143 208//143
f 159//144 208//144 206//144 196//144
f 232//145 228//145 231//145 234//145
f 234//146 231//146 230//146 235//146
f 235//147 230//147 229//147 236//147
f 236//148 229//148 227//148 233//148
f 222//149 218//149 221//149 224//149
f 224//150 221//150 220//150 225//150
f 225//151 220//151 219//151 226//151
f 226//152 219//152 217//152 223//152
f 178//153 218//153 222//153 195//153
f 237//154 253//154 256//154 239//154
f 239//155 256//155 255//155 240//155
f 240//156 255//156 254//156 241//156
f 241//157 254//157 252//157 238//157
f 247//158 243//158 246//158 249//158
f 249//159 246//159 245//159 250//159
f 250//160 245//160 244//160 251//160
f 251//161 244//161 242//161 248//161
f 237//162 168//162 169//162 253//162
