# Blender v2.80 (sub 75) OBJ File: 'arrowCW.blend'
# www.blender.org
mtllib arrowCW.mtl
g arrowCW_Cube.003
v -0.880468 0.060320 -2.787581
v -0.880446 -0.060320 -2.787580
v -0.670775 0.060320 -2.308758
v -0.670775 -0.060320 -2.308758
v -1.344136 0.060320 -2.532409
v -1.344115 -0.060320 -2.532412
v -1.054232 0.060320 -2.097439
v -1.054231 -0.060320 -2.097440
v -1.757232 0.060320 -2.203894
v -1.757211 -0.060320 -2.203900
v -1.396360 0.060320 -1.825720
v -1.396360 -0.060320 -1.825721
v -2.105797 0.060320 -1.807956
v -2.105777 -0.060320 -1.807966
v -1.684924 0.060320 -1.497940
v -1.684923 -0.060320 -1.497941
v -2.379621 0.060320 -1.355483
v -2.379603 -0.060320 -1.355496
v -1.911234 0.060320 -1.123412
v -1.911234 -0.060320 -1.123413
v -2.573746 0.060320 -0.862038
v -2.573731 -0.060320 -0.862053
v -2.071988 0.060320 -0.715468
v -2.071988 -0.060320 -0.715469
v -2.677670 0.060320 -0.342987
v -2.677659 -0.060320 -0.343004
v -2.158047 0.060320 -0.286115
v -2.158047 -0.060320 -0.286116
v -2.688285 0.060320 0.182449
v -2.688276 -0.060320 0.182429
v -2.166613 0.060320 0.149254
v -2.166613 -0.060320 0.149252
v -2.609946 0.060320 0.704782
v -2.609940 -0.060320 0.704760
v -2.101941 0.060320 0.581596
v -2.101941 -0.060320 0.581595
v -2.440215 0.060320 1.207235
v -2.440214 -0.060320 1.207214
v -1.961603 0.060320 0.997058
v -1.961604 -0.060320 0.997058
v -2.184639 0.060320 1.670672
v -2.184642 -0.060320 1.670651
v -1.749961 0.060320 1.380330
v -1.749961 -0.060320 1.380329
v -1.855760 0.060320 2.083481
v -1.855766 -0.060320 2.083460
v -1.477949 0.060320 1.722230
v -1.477950 -0.060320 1.722230
v -1.459374 0.060320 2.431550
v -1.459384 -0.060320 2.431532
v -1.149782 0.060320 2.010366
v -1.149783 -0.060320 2.010366
v -1.006653 0.060320 2.704981
v -1.006666 -0.060320 2.704964
v -0.775056 0.060320 2.236359
v -0.775057 -0.060320 2.236359
v -0.513025 0.060320 2.898675
v -0.513041 -0.060320 2.898660
v -0.366965 0.060320 2.396769
v -0.366965 -0.060320 2.396768
v 0.006132 0.060320 3.001942
v 0.006114 -0.060320 3.001931
v 0.062487 0.060320 2.482262
v 0.062486 -0.060320 2.482262
v 0.531577 0.060320 3.012092
v 0.531558 -0.060320 3.012084
v 0.497863 0.060320 2.490454
v 0.497862 -0.060320 2.490454
v 1.053871 0.060320 2.933293
v 1.053850 -0.060320 2.933287
v 0.930172 0.060320 2.425413
v 0.930171 -0.060320 2.425413
v 1.556113 0.060320 2.762927
v 1.556091 -0.060320 2.762925
v 1.345453 0.060320 2.284528
v 1.345452 -0.060320 2.284528
v 2.019320 0.060320 2.506946
v 2.019298 -0.060320 2.506947
v 1.728541 0.060320 2.072560
v 1.728540 -0.060320 2.072559
v 2.431844 0.060320 2.177704
v 2.431822 -0.060320 2.177710
v 2.070214 0.060320 1.800255
v 2.070213 -0.060320 1.800255
v 2.779418 0.060320 1.780870
v 2.779399 -0.060320 1.780879
v 2.357923 0.060320 1.471701
v 2.357922 -0.060320 1.471703
v 3.052456 0.060320 1.327899
v 3.052438 -0.060320 1.327912
v 2.583600 0.060320 1.096777
v 2.583600 -0.060320 1.096778
v 3.245718 0.060320 0.834090
v 3.245703 -0.060320 0.834105
v 2.743663 0.060320 0.688538
v 2.743664 -0.060320 0.688540
v 3.348329 0.060320 0.314827
v 3.348317 -0.060320 0.314845
v 2.828592 0.060320 0.258990
v 2.828592 -0.060320 0.258991
v 3.358016 0.060320 -0.210627
v 3.358006 -0.060320 -0.210608
v 2.836410 0.060320 -0.176394
v 2.836410 -0.060320 -0.176394
v 3.278755 0.060320 -0.732885
v 3.278750 -0.060320 -0.732863
v 2.771000 0.060320 -0.608672
v 2.771001 -0.060320 -0.608670
v 3.107753 0.060320 -1.234915
v 3.107752 -0.060320 -1.234894
v 2.629568 0.060320 -1.023771
v 2.629568 -0.060320 -1.023770
v 2.851367 0.060320 -1.697892
v 2.851370 -0.060320 -1.697870
v 2.417275 0.060320 -1.406675
v 2.417275 -0.060320 -1.406675
v 2.521765 0.060320 -2.110128
v 2.521770 -0.060320 -2.110108
v 2.144678 0.060320 -1.748121
v 2.144678 -0.060320 -1.748120
v 2.124483 0.060320 -2.457208
v 2.124493 -0.060320 -2.457190
v 1.815740 0.060320 -2.035402
v 1.815740 -0.060320 -2.035401
v 1.598687 -0.060474 -2.447160
v 1.625985 -0.060484 -2.498846
v 1.667090 -0.060489 -2.540403
v 1.720989 -0.060486 -2.570809
v 1.786356 -0.060477 -2.589314
v 1.861581 -0.060461 -2.595462
v 1.786306 0.060163 -2.589385
v 1.720939 0.060154 -2.570880
v 1.667040 0.060151 -2.540475
v 1.625935 0.060156 -2.498917
v 1.598637 0.060166 -2.447232
v 1.585590 0.060183 -2.386654
v 1.586096 -0.060457 -2.386654
v 1.594362 -0.060434 -2.322969
v 1.594144 0.060206 -2.323015
v 1.612521 0.060237 -2.242885
v 1.896111 -0.060450 -2.587034
v 1.944881 -0.060432 -2.566504
v 2.003119 -0.060408 -2.535883
v 2.065122 -0.060381 -2.498167
v 1.612405 -0.060403 -2.242789
v 1.758657 -0.060314 -2.080031
v 1.705208 -0.060343 -2.127524
v 1.660296 -0.060368 -2.173373
v 1.628319 -0.060389 -2.213091
v 1.861531 0.060179 -2.595533
v 2.065073 0.060259 -2.498237
v 2.003069 0.060232 -2.535953
v 1.944832 0.060208 -2.566575
v 1.896061 0.060190 -2.587105
v 1.628525 0.060251 -2.213200
v 1.660581 0.060272 -2.173493
v 1.705553 0.060297 -2.127652
v 1.759038 0.060326 -2.080165
v -0.944733 0.059857 -2.820219
v -0.884543 -0.060143 -0.487067
v -0.927945 -0.060143 -0.440258
v -0.972636 -0.060143 -0.407642
v -1.017514 -0.060143 -0.390020
v -1.061475 -0.060143 -0.387827
v -1.103436 -0.060143 -0.401118
v -1.142365 -0.060143 -0.429564
v -1.177301 -0.060143 -0.472466
v -1.207386 -0.060143 -0.528767
v -1.207386 0.059857 -0.528767
v -1.177301 0.059857 -0.472466
v -1.142364 0.059857 -0.429565
v -1.103436 0.059857 -0.401118
v -1.061475 0.059857 -0.387828
v -1.017514 0.059857 -0.390020
v -0.972636 0.059857 -0.407642
v -0.927945 0.059857 -0.440259
v -0.884543 0.059857 -0.487068
v -2.889504 -0.060143 -2.709864
v -2.936313 -0.060143 -2.753266
v -2.968930 -0.060143 -2.797957
v -2.986552 -0.060143 -2.842835
v -2.988744 -0.060143 -2.886796
v -2.975454 -0.060143 -2.928757
v -2.947007 -0.060143 -2.967685
v -2.904105 -0.060143 -3.002622
v -2.847805 -0.060143 -3.032706
v -2.847805 0.059857 -3.032707
v -2.904105 0.059857 -3.002622
v -2.947007 0.059857 -2.967685
v -2.975453 0.059857 -2.928757
v -2.988744 0.059857 -2.886796
v -2.986551 0.059857 -2.842835
v -2.968930 0.059857 -2.797957
v -2.936313 0.059857 -2.753266
v -2.889504 0.059857 -2.709864
v -0.944733 -0.060143 -2.820218
v -0.606510 -0.060143 -2.381729
v -0.603451 -0.060143 -2.443047
v -0.610024 -0.060143 -2.504145
v -0.626074 -0.060143 -2.563462
v -0.651205 -0.060143 -2.619538
v -0.684799 -0.060143 -2.670993
v -0.726030 -0.060143 -2.716558
v -0.773880 -0.060143 -2.755113
v -0.827172 -0.060143 -2.785708
v -0.884595 -0.060143 -2.807589
v -0.606517 0.059857 -2.381674
v -0.884595 0.059857 -2.807590
v -0.827172 0.059857 -2.785708
v -0.773880 0.059857 -2.755114
v -0.726030 0.059857 -2.716559
v -0.684800 0.059857 -2.670993
v -0.651205 0.059857 -2.619539
v -0.626074 0.059857 -2.563462
v -0.610024 0.059857 -2.504145
v -0.603451 0.059857 -2.443047
v -2.775061 -0.060143 -2.661767
v -2.880443 -0.060143 -2.703650
v -2.799820 -0.060143 -2.667116
v -2.828541 -0.060143 -2.676955
v -2.856852 -0.060143 -2.689783
v -2.880442 0.059857 -2.703649
v -2.775061 0.059857 -2.661767
v -2.856852 0.059857 -2.689783
v -2.828540 0.059857 -2.676955
v -2.799819 0.059857 -2.667117
v -2.837461 -0.060143 -3.036415
v -2.724896 -0.060143 -3.050147
v -2.811122 -0.060143 -3.043832
v -2.780480 -0.060143 -3.049046
v -2.750202 -0.060143 -3.051264
v -2.724896 0.059857 -3.050147
v -2.837461 0.059857 -3.036415
v -2.750201 0.059857 -3.051264
v -2.780479 0.059857 -3.049046
v -2.811121 0.059857 -3.043832
v -1.216549 -0.060143 -0.554325
v -1.215854 -0.060143 -0.721138
v -1.221195 -0.060143 -0.580130
v -1.222695 -0.060143 -0.620893
v -1.220819 -0.060143 -0.670409
v -0.869186 0.059857 -0.509459
v -0.827474 0.059857 -0.670974
v -0.858136 0.059857 -0.533236
v -0.846328 0.059857 -0.572281
v -0.835561 0.059857 -0.620648
v -0.827474 -0.060143 -0.670974
v -0.869186 -0.060143 -0.509459
v -0.835561 -0.060143 -0.620648
v -0.846328 -0.060143 -0.572281
v -0.858136 -0.060143 -0.533236
v -1.215854 0.059857 -0.721139
v -1.216549 0.059857 -0.554325
v -1.220819 0.059857 -0.670409
v -1.222695 0.059857 -0.620894
v -1.221195 0.059857 -0.580130
vn 0.9160 0.0001 -0.4011
vn -0.4821 -0.0001 -0.8761
vn 0.4827 -0.0000 0.8758
vn 0.0000 -1.0000 -0.0000
vn 0.0000 1.0000 -0.0000
vn -0.8321 -0.0001 0.5546
vn -0.6224 -0.0001 -0.7827
vn 0.6219 -0.0000 0.7831
vn 0.7235 0.0001 -0.6904
vn -0.7506 -0.0001 -0.6608
vn 0.7506 -0.0000 0.6608
vn 0.5931 0.0001 -0.8051
vn -0.8555 -0.0001 -0.5177
vn 0.8559 -0.0000 0.5172
vn 0.4440 0.0001 -0.8960
vn -0.9306 -0.0001 -0.3661
vn 0.9304 -0.0000 0.3666
vn 0.2804 0.0001 -0.9599
vn -0.9805 -0.0001 -0.1963
vn 0.9805 -0.0000 0.1965
vn 0.1088 0.0001 -0.9941
vn -0.9998 -0.0001 -0.0202
vn 0.9998 -0.0000 0.0197
vn -0.0635 0.0001 -0.9980
vn -0.9889 -0.0001 0.1483
vn 0.9890 0.0000 -0.1479
vn -0.2356 0.0001 -0.9718
vn -0.9474 -0.0001 0.3200
vn 0.9474 -0.0000 -0.3200
vn -0.4021 0.0001 -0.9156
vn -0.8757 -0.0001 0.4829
vn 0.8754 -0.0000 -0.4834
vn -0.5554 0.0001 -0.8316
vn -0.7821 -0.0001 0.6231
vn 0.7825 -0.0000 -0.6226
vn -0.6911 0.0001 -0.7228
vn -0.6598 -0.0001 0.7514
vn 0.6598 0.0000 -0.7515
vn -0.8057 0.0001 -0.5923
vn -0.5170 -0.0001 0.8560
vn 0.5164 -0.0000 -0.8563
vn -0.8965 0.0001 -0.4431
vn -0.3653 -0.0001 0.9309
vn 0.3658 -0.0000 -0.9307
vn -0.9602 0.0001 -0.2794
vn -0.1951 -0.0001 0.9808
vn 0.1952 0.0000 -0.9808
vn 0.9942 -0.0001 0.1078
vn -0.0193 -0.0001 0.9998
vn 0.0188 -0.0000 -0.9998
vn 0.9979 -0.0001 -0.0645
vn 0.1492 -0.0001 0.9888
vn -0.1488 -0.0000 -0.9889
vn 0.9716 -0.0001 -0.2366
vn 0.3212 -0.0001 0.9470
vn -0.3213 0.0000 -0.9470
vn 0.9152 -0.0001 -0.4030
vn 0.4837 -0.0001 0.8752
vn -0.4841 0.0000 -0.8750
vn 0.8310 -0.0001 -0.5563
vn 0.6238 -0.0001 0.7816
vn -0.6233 0.0000 -0.7820
vn -0.7221 0.0001 0.6918
vn 0.7522 -0.0001 0.6589
vn -0.7523 -0.0000 -0.6588
vn -0.5915 0.0001 0.8063
vn 0.8564 -0.0001 0.5162
vn -0.8568 -0.0000 -0.5157
vn -0.4422 0.0001 0.8969
vn 0.9312 -0.0001 0.3645
vn -0.9310 -0.0000 -0.3650
vn -0.2785 0.0001 0.9604
vn 0.9810 -0.0001 0.1939
vn -0.9810 -0.0000 -0.1940
vn -0.1068 0.0001 0.9943
vn 0.9998 -0.0001 0.0184
vn -0.9998 -0.0000 -0.0180
vn 0.0655 0.0001 0.9979
vn 0.9887 -0.0001 -0.1500
vn -0.9887 -0.0000 0.1496
vn 0.2376 0.0001 0.9714
vn 0.9466 -0.0001 -0.3224
vn -0.9466 -0.0000 0.3225
vn 0.4039 0.0001 0.9148
vn 0.8748 -0.0001 -0.4845
vn -0.8746 0.0000 0.4849
vn 0.5571 0.0001 0.8304
vn 0.7810 -0.0001 -0.6245
vn -0.7815 0.0000 0.6239
vn 0.6925 0.0001 0.7214
vn 0.6579 -0.0001 -0.7531
vn -0.6578 0.0000 0.7532
vn -0.9783 -0.0023 -0.2071
vn -0.8842 -0.0006 -0.4670
vn -0.7110 -0.0007 -0.7032
vn -0.4913 -0.0007 -0.8710
vn -0.2724 -0.0007 -0.9622
vn -0.0815 -0.0006 -0.9967
vn -0.9752 -0.0003 0.2215
vn -0.9914 -0.0030 0.1310
vn -0.6641 0.0028 0.7477
vn -0.7141 0.0026 0.7000
vn -0.7785 0.0022 0.6276
vn -0.8808 0.0016 0.4734
vn 0.2371 -0.0005 -0.9715
vn 0.3880 -0.0004 -0.9217
vn 0.4654 -0.0003 -0.8851
vn 0.5197 -0.0003 -0.8544
vn 0.5681 -0.0002 -0.8229
vn -0.6178 0.0014 0.7864
vn 0.0002 -1.0000 0.0003
vn -0.0002 1.0000 -0.0003
vn -0.1281 -0.0002 0.9918
vn -0.9918 -0.0000 -0.1281
vn -0.3375 -0.0000 -0.9413
vn 0.9918 0.0000 0.1281
vn 0.7333 0.0000 0.6799
vn 0.5895 0.0000 0.8078
vn 0.3655 0.0000 0.9308
vn 0.0498 0.0000 0.9988
vn -0.3019 0.0000 0.9533
vn -0.5900 0.0000 0.8074
vn -0.7754 0.0000 0.6315
vn -0.8820 0.0000 0.4713
vn -0.6799 0.0000 0.7333
vn -0.8077 0.0000 0.5895
vn -0.9308 0.0000 0.3655
vn -0.9988 0.0000 0.0498
vn -0.9533 0.0000 -0.3020
vn -0.8074 0.0000 -0.5900
vn -0.6314 0.0000 -0.7754
vn -0.4713 0.0000 -0.8820
vn 0.1281 -0.0000 -0.9918
vn 0.8247 0.0000 0.5656
vn 0.9988 0.0000 0.0499
vn 0.9943 -0.0000 -0.1070
vn 0.9653 0.0000 -0.2612
vn 0.9125 -0.0000 -0.4090
vn 0.8373 -0.0000 -0.5467
vn 0.7415 -0.0000 -0.6709
vn 0.6274 -0.0000 -0.7787
vn 0.4979 -0.0000 -0.8672
vn 0.3561 -0.0000 -0.9345
vn 0.2055 -0.0000 -0.9787
vn 0.0441 -0.0000 -0.9990
vn -0.0731 -0.0000 -0.9973
vn -0.1677 0.0000 -0.9858
vn -0.2711 -0.0000 -0.9626
vn -0.5067 0.0000 0.8621
vn -0.4127 0.0000 0.9109
vn -0.3241 0.0000 0.9460
vn -0.2112 0.0000 0.9774
vn -0.5656 0.0000 0.8247
vn -0.9842 0.0000 0.1772
vn -0.9993 0.0000 0.0368
vn -0.9993 -0.0000 -0.0379
vn -0.9952 0.0000 -0.0974
vn 0.9873 0.0000 0.1587
vn 0.9761 0.0000 0.2173
vn 0.9572 -0.0000 0.2895
vn 0.9069 0.0000 0.4215
vn -0.9413 -0.0000 0.3375
usemtl Material
s off
f 2//1 1//1 3//1 4//1
f 6//2 5//2 1//2 2//2
f 3//3 7//3 8//3 4//3
f 8//4 6//4 2//4 4//4
f 3//5 1//5 5//5 7//5
f 6//6 8//6 7//6 5//6
f 10//7 9//7 5//7 6//7
f 7//8 11//8 12//8 8//8
f 12//4 10//4 6//4 8//4
f 7//5 5//5 9//5 11//5
f 10//9 9//9 11//9 12//9
f 14//10 13//10 9//10 10//10
f 11//11 15//11 16//11 12//11
f 16//4 14//4 10//4 12//4
f 11//5 9//5 13//5 15//5
f 14//12 13//12 15//12 16//12
f 18//13 17//13 13//13 14//13
f 15//14 19//14 20//14 16//14
f 20//4 18//4 14//4 16//4
f 15//5 13//5 17//5 19//5
f 18//15 17//15 19//15 20//15
f 22//16 21//16 17//16 18//16
f 19//17 23//17 24//17 20//17
f 24//4 22//4 18//4 20//4
f 19//5 17//5 21//5 23//5
f 22//18 21//18 23//18 24//18
f 26//19 25//19 21//19 22//19
f 23//20 27//20 28//20 24//20
f 28//4 26//4 22//4 24//4
f 23//5 21//5 25//5 27//5
f 26//21 25//21 27//21 28//21
f 30//22 29//22 25//22 26//22
f 27//23 31//23 32//23 28//23
f 32//4 30//4 26//4 28//4
f 27//5 25//5 29//5 31//5
f 30//24 29//24 31//24 32//24
f 34//25 33//25 29//25 30//25
f 31//26 35//26 36//26 32//26
f 36//4 34//4 30//4 32//4
f 31//5 29//5 33//5 35//5
f 34//27 33//27 35//27 36//27
f 38//28 37//28 33//28 34//28
f 35//29 39//29 40//29 36//29
f 40//4 38//4 34//4 36//4
f 35//5 33//5 37//5 39//5
f 38//30 37//30 39//30 40//30
f 42//31 41//31 37//31 38//31
f 39//32 43//32 44//32 40//32
f 44//4 42//4 38//4 40//4
f 39//5 37//5 41//5 43//5
f 42//33 41//33 43//33 44//33
f 46//34 45//34 41//34 42//34
f 43//35 47//35 48//35 44//35
f 48//4 46//4 42//4 44//4
f 43//5 41//5 45//5 47//5
f 46//36 45//36 47//36 48//36
f 50//37 49//37 45//37 46//37
f 47//38 51//38 52//38 48//38
f 52//4 50//4 46//4 48//4
f 47//5 45//5 49//5 51//5
f 50//39 49//39 51//39 52//39
f 54//40 53//40 49//40 50//40
f 51//41 55//41 56//41 52//41
f 56//4 54//4 50//4 52//4
f 51//5 49//5 53//5 55//5
f 54//42 53//42 55//42 56//42
f 58//43 57//43 53//43 54//43
f 55//44 59//44 60//44 56//44
f 60//4 58//4 54//4 56//4
f 55//5 53//5 57//5 59//5
f 58//45 57//45 59//45 60//45
f 62//46 61//46 57//46 58//46
f 59//47 63//47 64//47 60//47
f 64//4 62//4 58//4 60//4
f 59//5 57//5 61//5 63//5
f 62//48 64//48 63//48 61//48
f 66//49 65//49 61//49 62//49
f 63//50 67//50 68//50 64//50
f 68//4 66//4 62//4 64//4
f 63//5 61//5 65//5 67//5
f 66//51 68//51 67//51 65//51
f 70//52 69//52 65//52 66//52
f 67//53 71//53 72//53 68//53
f 72//4 70//4 66//4 68//4
f 67//5 65//5 69//5 71//5
f 70//54 72//54 71//54 69//54
f 74//55 73//55 69//55 70//55
f 71//56 75//56 76//56 72//56
f 76//4 74//4 70//4 72//4
f 71//5 69//5 73//5 75//5
f 74//57 76//57 75//57 73//57
f 78//58 77//58 73//58 74//58
f 75//59 79//59 80//59 76//59
f 80//4 78//4 74//4 76//4
f 75//5 73//5 77//5 79//5
f 78//60 80//60 79//60 77//60
f 82//61 81//61 77//61 78//61
f 79//62 83//62 84//62 80//62
f 84//4 82//4 78//4 80//4
f 79//5 77//5 81//5 83//5
f 82//63 81//63 83//63 84//63
f 86//64 85//64 81//64 82//64
f 83//65 87//65 88//65 84//65
f 88//4 86//4 82//4 84//4
f 83//5 81//5 85//5 87//5
f 86//66 85//66 87//66 88//66
f 90//67 89//67 85//67 86//67
f 87//68 91//68 92//68 88//68
f 92//4 90//4 86//4 88//4
f 87//5 85//5 89//5 91//5
f 90//69 89//69 91//69 92//69
f 94//70 93//70 89//70 90//70
f 91//71 95//71 96//71 92//71
f 96//4 94//4 90//4 92//4
f 91//5 89//5 93//5 95//5
f 94//72 93//72 95//72 96//72
f 98//73 97//73 93//73 94//73
f 95//74 99//74 100//74 96//74
f 100//4 98//4 94//4 96//4
f 95//5 93//5 97//5 99//5
f 98//75 97//75 99//75 100//75
f 102//76 101//76 97//76 98//76
f 99//77 103//77 104//77 100//77
f 104//4 102//4 98//4 100//4
f 99//5 97//5 101//5 103//5
f 102//78 101//78 103//78 104//78
f 106//79 105//79 101//79 102//79
f 103//80 107//80 108//80 104//80
f 108//4 106//4 102//4 104//4
f 103//5 101//5 105//5 107//5
f 106//81 105//81 107//81 108//81
f 110//82 109//82 105//82 106//82
f 107//83 111//83 112//83 108//83
f 112//4 110//4 106//4 108//4
f 107//5 105//5 109//5 111//5
f 110//84 109//84 111//84 112//84
f 114//85 113//85 109//85 110//85
f 111//86 115//86 116//86 112//86
f 116//4 114//4 110//4 112//4
f 111//5 109//5 113//5 115//5
f 114//87 113//87 115//87 116//87
f 118//88 117//88 113//88 114//88
f 115//89 119//89 120//89 116//89
f 120//4 118//4 114//4 116//4
f 115//5 113//5 117//5 119//5
f 118//90 117//90 119//90 120//90
f 122//91 121//91 117//91 118//91
f 119//92 123//92 124//92 120//92
f 124//4 122//4 118//4 120//4
f 119//5 117//5 121//5 123//5
f 125//93 137//93 136//93 135//93
f 126//94 125//94 135//94 134//94
f 127//95 126//95 134//95 133//95
f 128//96 127//96 133//96 132//96
f 129//97 128//97 132//97 131//97
f 130//98 129//98 131//98 150//98
f 145//99 140//99 139//99 138//99
f 138//100 139//100 136//100 137//100
f 146//101 158//101 157//101 147//101
f 147//102 157//102 156//102 148//102
f 148//103 156//103 155//103 149//103
f 149//104 155//104 140//104 145//104
f 130//105 150//105 154//105 141//105
f 141//106 154//106 153//106 142//106
f 142//107 153//107 152//107 143//107
f 143//108 152//108 151//108 144//108
f 122//109 144//109 151//109 121//109
f 124//110 123//110 158//110 146//110
f 124//111 146//111 147//111 148//111 149//111 145//111 138//111 137//111 125//111 126//111 127//111 128//111 129//111 130//111 141//111 142//111 143//111 144//111 122//111
f 121//112 151//112 152//112 153//112 154//112 150//112 131//112 132//112 133//112 134//112 135//112 136//112 139//112 140//112 155//112 156//112 157//112 158//112 123//112
f 196//4 206//4 205//4 204//4 203//4 202//4 201//4 200//4 199//4 198//4 197//4
f 217//113 197//113 207//113 223//113
f 196//114 238//114 252//114 159//114
f 227//115 186//115 187//115 233//115
f 252//5 254//5 255//5 256//5 253//5 169//5 170//5 171//5 172//5 173//5 174//5 175//5 176//5 177//5 242//5 244//5 245//5 246//5 243//5 207//5 213//5 212//5 211//5 210//5 209//5 208//5 159//5
f 197//116 207//116 243//116 247//116
f 161//117 160//117 177//117 176//117
f 162//118 161//118 176//118 175//118
f 163//119 162//119 175//119 174//119
f 164//120 163//120 174//120 173//120
f 165//121 164//121 173//121 172//121
f 166//122 165//122 172//122 171//122
f 167//123 166//123 171//123 170//123
f 168//124 167//124 170//124 169//124
f 197//4 247//4 249//4 250//4 251//4 248//4 160//4 161//4 162//4 163//4 164//4 165//4 166//4 167//4 168//4 237//4 239//4 240//4 241//4 238//4 196//4
f 196//4 197//4 217//4 219//4 220//4 221//4 218//4 178//4 179//4 180//4 181//4 182//4 183//4 184//4 185//4 186//4 227//4 229//4 230//4 231//4 228//4
f 179//125 178//125 195//125 194//125
f 180//126 179//126 194//126 193//126
f 192//127 181//127 180//127 193//127
f 182//128 181//128 192//128 191//128
f 183//129 182//129 191//129 190//129
f 184//130 183//130 190//130 189//130
f 185//131 184//131 189//131 188//131
f 186//132 185//132 188//132 187//132
f 232//133 159//133 196//133 228//133
f 207//5 216//5 215//5 214//5 213//5
f 160//134 248//134 242//134 177//134
f 187//5 188//5 189//5 190//5 191//5 192//5 193//5 194//5 195//5 222//5 224//5 225//5 226//5 223//5 207//5 213//5 212//5 211//5 210//5 209//5 208//5 159//5 232//5 234//5 235//5 236//5 233//5
f 207//135 197//135 198//135 216//135
f 216//136 198//136 199//136 215//136
f 215//137 199//137 200//137 214//137
f 214//138 200//138 201//138 213//138
f 213//139 201//139 202//139 212//139
f 212//140 202//140 203//140 211//140
f 211//141 203//141 204//141 210//141
f 210//142 204//142 205//142 209//142
f 209//143 205//143 206//143 208//143
f 159//144 208//144 206//144 196//144
f 232//145 228//145 231//145 234//145
f 234//146 231//146 230//146 235//146
f 235//147 230//147 229//147 236//147
f 236//148 229//148 227//148 233//148
f 222//149 218//149 221//149 224//149
f 224//150 221//150 220//150 225//150
f 225//151 220//151 219//151 226//151
f 226//152 219//152 217//152 223//152
f 178//153 218//153 222//153 195//153
f 237//154 253//154 256//154 239//154
f 239//155 256//155 255//155 240//155
f 240//156 255//156 254//156 241//156
f 241//157 254//157 252//157 238//157
f 247//158 243//158 246//158 249//158
f 249//159 246//159 245//159 250//159
f 250//160 245//160 244//160 251//160
f 251//161 244//161 242//161 248//161
f 237//162 168//162 169//162 253//162
