# Blender v2.79 (sub 7) OBJ File: 'arrow.blend'
# www.blender.org
mtllib arrow.mtl
o Cube
v 0.453314 0.100000 3.062788
v -2.670489 -0.100000 0.779644
v -2.687996 -0.100000 0.675276
v -2.685568 -0.100000 0.583586
v -2.663265 -0.100000 0.506831
v -2.621635 -0.100000 0.446901
v -2.561705 -0.100000 0.405272
v -2.484950 -0.100000 0.382968
v -2.393260 -0.100000 0.380540
v -2.288891 -0.100000 0.398048
v -2.288891 0.100000 0.398048
v -2.393259 0.100000 0.380541
v -2.484950 0.100000 0.382969
v -2.561705 0.100000 0.405272
v -2.621635 0.100000 0.446901
v -2.663264 0.100000 0.506831
v -2.685567 0.100000 0.583586
v -2.687996 0.100000 0.675277
v -2.670489 0.100000 0.779645
v 2.277393 -0.100000 0.398047
v 2.381762 -0.100000 0.380539
v 2.473452 -0.100000 0.382968
v 2.550207 -0.100000 0.405271
v 2.610137 -0.100000 0.446900
v 2.651766 -0.100000 0.506830
v 2.674069 -0.100000 0.583586
v 2.676497 -0.100000 0.675276
v 2.658990 -0.100000 0.779644
v 2.658990 0.100000 0.779645
v 2.676497 0.100000 0.675277
v 2.674069 0.100000 0.583586
v 2.651766 0.100000 0.506831
v 2.610137 0.100000 0.446900
v 2.550206 0.100000 0.405272
v 2.473452 0.100000 0.382968
v 2.381761 0.100000 0.380540
v 2.277393 0.100000 0.398047
v 0.453313 -0.100000 3.062787
v -0.464746 -0.100000 3.062851
v -0.387347 -0.100000 3.128947
v -0.300485 -0.100000 3.182176
v -0.206367 -0.100000 3.221161
v -0.107309 -0.100000 3.244943
v -0.005749 -0.100000 3.252936
v 0.095810 -0.100000 3.244943
v 0.194868 -0.100000 3.221162
v 0.288987 -0.100000 3.182177
v 0.375848 -0.100000 3.128948
v -0.464811 0.100000 3.062786
v 0.375849 0.100000 3.128949
v 0.288987 0.100000 3.182178
v 0.194868 0.100000 3.221162
v 0.095810 0.100000 3.244944
v -0.005749 0.100000 3.252936
v -0.107308 0.100000 3.244944
v -0.206367 0.100000 3.221161
v -0.300485 0.100000 3.182176
v -0.387346 0.100000 3.128947
v 0.318856 -0.100000 3.097586
v -0.330356 -0.100000 3.097584
v 0.318856 0.100000 3.097586
v -0.330356 0.100000 3.097584
v -0.077563 -0.100000 -3.252001
v -0.005750 -0.100000 -3.262635
v 0.066064 -0.100000 -3.252001
v 0.136109 -0.100000 -3.220362
v 0.202660 -0.100000 -3.168498
v 0.264081 -0.100000 -3.097683
v 0.264081 0.100000 -3.097682
v 0.202661 0.100000 -3.168497
v 0.136109 0.100000 -3.220362
v 0.066064 0.100000 -3.252001
v -0.005750 0.100000 -3.262635
v -0.077563 0.100000 -3.252001
v -0.147811 0.100000 -3.220564
v 2.098388 -0.100000 0.499587
v 2.260061 -0.100000 0.403650
v 2.130477 -0.100000 0.472502
v 2.172471 -0.100000 0.444758
v 2.217974 -0.100000 0.420581
v 2.260061 0.100000 0.403650
v 2.098387 0.100000 0.499588
v 2.217974 0.100000 0.420581
v 2.172470 0.100000 0.444759
v 2.130476 0.100000 0.472502
v 2.653387 -0.100000 0.796977
v 2.557449 -0.100000 0.958651
v 2.636456 -0.100000 0.839064
v 2.612278 -0.100000 0.884568
v 2.584535 -0.100000 0.926561
v 2.557448 0.100000 0.958652
v 2.653386 0.100000 0.796978
v 2.584534 0.100000 0.926562
v 2.612278 0.100000 0.884569
v 2.636455 0.100000 0.839065
v -2.246063 -0.100000 0.411894
v -2.027781 -0.100000 0.581693
v -2.207482 -0.100000 0.431921
v -2.152452 -0.100000 0.471222
v -2.089349 -0.100000 0.523815
v -2.656642 0.100000 0.822473
v -2.486843 0.100000 1.040756
v -2.636616 0.100000 0.861053
v -2.597314 0.100000 0.916084
v -2.544721 0.100000 0.979187
v -2.486843 -0.100000 1.040755
v -2.656642 -0.100000 0.822473
v -2.544721 -0.100000 0.979186
v -2.597315 -0.100000 0.916084
v -2.636616 -0.100000 0.861053
v -2.027780 0.100000 0.581694
v -2.246062 0.100000 0.411894
v -2.089349 0.100000 0.523816
v -2.152452 0.100000 0.471222
v -2.207482 0.100000 0.431921
v -0.147405 -0.100000 -3.220160
v -0.272146 -0.100000 -3.088125
v -0.205107 -0.100000 -3.165097
v -0.205256 0.100000 -3.165246
v -0.271998 0.100000 -3.087976
v 0.264081 -0.100000 -3.097683
v 0.318856 -0.100000 -2.732384
v 0.281008 -0.100000 -3.056913
v 0.296278 -0.100000 -2.992991
v 0.308396 -0.100000 -2.912175
v 0.316176 -0.100000 -2.822376
v -0.330549 -0.100000 -2.732580
v -0.272146 -0.100000 -3.088125
v -0.327693 -0.100000 -2.822098
v -0.319398 -0.100000 -2.910512
v -0.306478 -0.100000 -2.989170
v -0.290195 -0.100000 -3.050371
v 0.318857 0.100000 -2.732383
v 0.264081 0.100000 -3.097682
v 0.316176 0.100000 -2.822375
v 0.308396 0.100000 -2.912174
v 0.296278 0.100000 -2.992990
v 0.281008 0.100000 -3.056911
v -0.271998 0.100000 -3.087976
v -0.330162 0.100000 -2.732187
v -0.289969 0.100000 -3.050142
v -0.306182 0.100000 -2.988871
v -0.319050 0.100000 -2.910159
v -0.327313 0.100000 -2.821712
vn 0.0000 -1.0000 0.0000
vn -0.7071 -0.0002 -0.7071
vn 0.7071 0.0000 -0.7071
vn 0.9515 0.0000 0.3076
vn 0.0000 1.0000 -0.0000
vn -0.7071 -0.0000 0.7071
vn -0.9862 -0.0000 0.1654
vn -0.9996 0.0000 -0.0265
vn -0.9603 0.0000 -0.2790
vn -0.8213 0.0000 -0.5705
vn -0.5705 0.0000 -0.8213
vn -0.2790 0.0000 -0.9603
vn -0.0265 0.0000 -0.9996
vn 0.1654 0.0000 -0.9862
vn -0.1654 0.0000 -0.9862
vn 0.0265 0.0000 -0.9996
vn 0.2790 0.0000 -0.9603
vn 0.5705 0.0000 -0.8213
vn 0.8213 0.0000 -0.5705
vn 0.9603 0.0000 -0.2790
vn 0.9996 0.0000 -0.0265
vn 0.9862 0.0000 0.1654
vn 0.7071 -0.0000 0.7071
vn -0.9515 0.0000 0.3076
vn -0.6494 0.0000 0.7604
vn -0.5225 0.0000 0.8526
vn -0.3827 0.0000 0.9239
vn -0.2334 -0.0000 0.9724
vn -0.0785 -0.0000 0.9969
vn 0.0785 -0.0000 0.9969
vn 0.2334 -0.0000 0.9724
vn 0.3827 -0.0000 0.9239
vn 0.5225 -0.0000 0.8526
vn 0.6494 -0.0000 0.7604
vn 0.0000 0.0000 1.0000
vn -0.4117 -0.0013 -0.9113
vn -0.1465 -0.0000 -0.9892
vn 0.1465 0.0000 -0.9892
vn 0.4116 0.0000 -0.9113
vn 0.6147 0.0000 -0.7888
vn 0.7554 0.0000 -0.6552
vn 0.7642 -0.0000 0.6450
vn 0.8344 -0.0000 0.5512
vn 0.8831 0.0000 0.4692
vn 0.9277 0.0000 0.3732
vn -0.3732 0.0000 -0.9277
vn -0.4692 0.0000 -0.8831
vn -0.5512 0.0000 -0.8344
vn -0.6450 -0.0000 -0.7642
vn -0.3076 0.0000 -0.9515
vn 0.4607 -0.0000 -0.8875
vn 0.5812 -0.0000 -0.8138
vn 0.6402 -0.0000 -0.7682
vn 0.6849 -0.0000 -0.7286
vn -0.7286 -0.0000 0.6849
vn -0.7682 0.0000 0.6402
vn -0.8138 0.0000 0.5812
vn -0.8875 0.0000 0.4607
vn 0.3076 -0.0000 -0.9515
vn -1.0000 0.0010 -0.0000
vn -0.7554 -0.0000 -0.6552
vn -0.6920 -0.0020 -0.7219
vn 1.0000 0.0000 0.0000
vn -0.9995 0.0020 -0.0319
vn -0.9956 0.0020 -0.0932
vn -0.9868 0.0019 -0.1617
vn -0.9666 0.0016 -0.2565
vn -0.9027 0.0012 -0.4302
vn 0.9236 0.0000 -0.3834
vn 0.9726 0.0000 -0.2323
vn 0.9889 0.0000 -0.1483
vn 0.9963 0.0000 -0.0863
vn 0.9996 -0.0000 -0.0298
usemtl Material
s off
f 38//1 48//1 47//1 46//1 45//1 44//1 43//1 42//1 41//1 40//1 39//1
f 76//2 39//2 49//2 82//2
f 38//3 97//3 111//3 1//3
f 86//4 28//4 29//4 92//4
f 111//5 113//5 114//5 115//5 112//5 11//5 12//5 13//5 14//5 15//5 16//5 17//5 18//5 19//5 101//5 103//5 104//5 105//5 102//5 49//5 55//5 54//5 53//5 52//5 51//5 50//5 1//5
f 39//6 49//6 102//6 106//6
f 3//7 2//7 19//7 18//7
f 4//8 3//8 18//8 17//8
f 5//9 4//9 17//9 16//9
f 6//10 5//10 16//10 15//10
f 7//11 6//11 15//11 14//11
f 8//12 7//12 14//12 13//12
f 9//13 8//13 13//13 12//13
f 10//14 9//14 12//14 11//14
f 39//1 106//1 108//1 109//1 110//1 107//1 2//1 3//1 4//1 5//1 6//1 7//1 8//1 9//1 10//1 96//1 98//1 99//1 100//1 97//1 38//1
f 38//1 39//1 76//1 78//1 79//1 80//1 77//1 20//1 21//1 22//1 23//1 24//1 25//1 26//1 27//1 28//1 86//1 88//1 89//1 90//1 87//1
f 21//15 20//15 37//15 36//15
f 22//16 21//16 36//16 35//16
f 34//17 23//17 22//17 35//17
f 24//18 23//18 34//18 33//18
f 25//19 24//19 33//19 32//19
f 26//20 25//20 32//20 31//20
f 27//21 26//21 31//21 30//21
f 28//22 27//22 30//22 29//22
f 91//23 1//23 38//23 87//23
f 49//5 58//5 57//5 56//5 55//5
f 2//24 107//24 101//24 19//24
f 29//5 30//5 31//5 32//5 33//5 34//5 35//5 36//5 37//5 81//5 83//5 84//5 85//5 82//5 49//5 55//5 54//5 53//5 52//5 51//5 50//5 1//5 91//5 93//5 94//5 95//5 92//5
f 49//25 39//25 40//25 58//25
f 58//26 40//26 41//26 57//26
f 57//27 41//27 42//27 56//27
f 56//28 42//28 43//28 55//28
f 55//29 43//29 44//29 54//29
f 54//30 44//30 45//30 53//30
f 53//31 45//31 46//31 52//31
f 52//32 46//32 47//32 51//32
f 51//33 47//33 48//33 50//33
f 1//34 50//34 48//34 38//34
f 121//35 68//35 69//35 134//35
f 60//35 59//35 61//35 62//35
f 71//5 72//5 73//5 74//5 75//5 119//5 120//5 139//5 141//5 142//5 143//5 144//5 140//5 62//5 61//5 133//5 135//5 136//5 137//5 138//5 134//5 69//5 70//5
f 63//36 116//36 75//36 74//36
f 64//37 63//37 74//37 73//37
f 65//38 64//38 73//38 72//38
f 66//39 65//39 72//39 71//39
f 67//40 66//40 71//40 70//40
f 68//41 67//41 70//41 69//41
f 128//35 139//35 120//35 117//35
f 91//42 87//42 90//42 93//42
f 93//43 90//43 89//43 94//43
f 94//44 89//44 88//44 95//44
f 95//45 88//45 86//45 92//45
f 81//46 77//46 80//46 83//46
f 83//47 80//47 79//47 84//47
f 84//48 79//48 78//48 85//48
f 85//49 78//49 76//49 82//49
f 20//50 77//50 81//50 37//50
f 96//51 112//51 115//51 98//51
f 98//52 115//52 114//52 99//52
f 99//53 114//53 113//53 100//53
f 100//54 113//54 111//54 97//54
f 106//55 102//55 105//55 108//55
f 108//56 105//56 104//56 109//56
f 109//57 104//57 103//57 110//57
f 110//58 103//58 101//58 107//58
f 96//59 10//59 11//59 112//59
f 140//60 127//60 60//60 62//60
f 117//61 120//61 119//61 118//61
f 118//62 119//62 75//62 116//62
f 59//63 122//63 133//63 61//63
f 127//64 140//64 144//64 129//64
f 129//65 144//65 143//65 130//65
f 130//66 143//66 142//66 131//66
f 131//67 142//67 141//67 132//67
f 132//68 141//68 139//68 128//68
f 121//69 134//69 138//69 123//69
f 123//70 138//70 137//70 124//70
f 124//71 137//71 136//71 125//71
f 125//72 136//72 135//72 126//72
f 126//73 135//73 133//73 122//73
f 127//1 129//1 130//1 131//1 132//1 128//1 117//1 118//1 116//1 63//1 64//1 65//1 66//1 67//1 68//1 121//1 123//1 124//1 125//1 126//1 122//1 59//1 60//1
