# Blender v2.80 (sub 75) OBJ File: 'curved.blend'
# www.blender.org
mtllib curved.mtl
o NurbsPath
v -2.000000 0.000000 0.000000
v -1.914894 0.000000 -0.096149
v -1.829787 0.000000 -0.186225
v -1.744681 0.000000 -0.270479
v -1.659575 0.000000 -0.349153
v -1.574468 0.000000 -0.422476
v -1.489362 0.000000 -0.490667
v -1.404256 0.000000 -0.553931
v -1.319149 0.000000 -0.612465
v -1.234043 0.000000 -0.666450
v -1.148936 0.000000 -0.716060
v -1.063830 0.000000 -0.761456
v -0.978724 0.000000 -0.802786
v -0.893617 0.000000 -0.840187
v -0.808511 0.000000 -0.873787
v -0.723404 0.000000 -0.903700
v -0.638298 0.000000 -0.930030
v -0.553192 0.000000 -0.952867
v -0.468085 0.000000 -0.972292
v -0.382979 0.000000 -0.988375
v -0.297873 0.000000 -1.001173
v -0.212766 0.000000 -1.010731
v -0.127660 0.000000 -1.017084
v -0.042553 0.000000 -1.020254
v 0.042553 0.000000 -1.020254
v 0.127660 0.000000 -1.017084
v 0.212766 0.000000 -1.010731
v 0.297872 0.000000 -1.001173
v 0.382979 0.000000 -0.988375
v 0.468085 0.000000 -0.972292
v 0.553191 0.000000 -0.952867
v 0.638298 0.000000 -0.930030
v 0.723404 0.000000 -0.903700
v 0.808511 0.000000 -0.873787
v 0.893617 0.000000 -0.840187
v 0.978723 0.000000 -0.802786
v 1.063830 0.000000 -0.761456
v 1.148936 0.000000 -0.716061
v 1.234042 0.000000 -0.666450
v 1.319149 0.000000 -0.612465
v 1.404255 0.000000 -0.553931
v 1.489361 0.000000 -0.490667
v 1.574468 0.000000 -0.422477
v 1.659574 0.000000 -0.349153
v 1.744681 0.000000 -0.270479
v 1.829787 0.000000 -0.186225
v 1.914893 0.000000 -0.096149
v 2.000000 0.000000 -0.000000
l 1 2
l 2 3
l 3 4
l 4 5
l 5 6
l 6 7
l 7 8
l 8 9
l 9 10
l 10 11
l 11 12
l 12 13
l 13 14
l 14 15
l 15 16
l 16 17
l 17 18
l 18 19
l 19 20
l 20 21
l 21 22
l 22 23
l 23 24
l 24 25
l 25 26
l 26 27
l 27 28
l 28 29
l 29 30
l 30 31
l 31 32
l 32 33
l 33 34
l 34 35
l 35 36
l 36 37
l 37 38
l 38 39
l 39 40
l 40 41
l 41 42
l 42 43
l 43 44
l 44 45
l 45 46
l 46 47
l 47 48
o Plane
v -0.651649 -1.000000 0.158348
v 1.282979 -1.000000 0.050606
v -0.651649 1.000000 0.158349
v 1.282978 1.000000 0.050607
v 1.282979 -1.000000 0.050606
v 1.282978 1.000000 0.050607
v -0.651649 1.000000 0.158349
v -0.651649 -1.000000 0.158348
v -0.651649 0.500000 0.158349
v -0.651649 0.000000 0.158349
v -0.651649 -0.500000 0.158349
v 1.282978 -1.000000 0.050606
v 1.282979 -1.000000 0.050606
v 1.282978 -1.000000 0.050606
v 1.282978 -0.500000 0.050606
v 1.282978 0.000000 0.050606
v 1.282978 0.500000 0.050606
v -0.651649 1.000000 0.158349
v -0.651649 1.000000 0.158349
v -0.651649 1.000000 0.158349
v -0.188115 -1.000000 -0.026253
v 0.303948 -1.000000 -0.108332
v 0.802060 -1.000000 -0.081976
v 1.282978 1.000000 0.050607
v 1.282978 1.000000 0.050607
v 1.282978 1.000000 0.050607
v 1.282978 -0.500000 0.050606
v 1.282978 0.000000 0.050606
v 1.282978 0.500000 0.050606
v 0.802059 1.000000 -0.081975
v 0.303947 1.000000 -0.108332
v -0.188115 1.000001 -0.026253
v -0.651649 -1.000000 0.158348
v -0.651649 -1.000000 0.158348
v -0.651649 -1.000000 0.158348
v -0.651649 -0.500000 0.158349
v -0.651649 0.000000 0.158349
v -0.651649 0.500000 0.158349
v 1.282978 -0.500000 0.050606
v 1.282978 -0.500000 0.050606
v 1.282978 -0.500000 0.050606
v 1.282978 0.000000 0.050606
v 1.282978 0.000000 0.050606
v 1.282978 0.000000 0.050606
v 1.282978 0.500000 0.050606
v 1.282978 0.500000 0.050606
v 1.282978 0.500000 0.050606
v -0.188115 -0.500000 -0.026253
v 0.303948 -0.500000 -0.108332
v 0.802060 -0.500000 -0.081976
v -0.188115 0.000000 -0.026253
v 0.303947 0.000000 -0.108332
v 0.802060 0.000000 -0.081976
v -0.188115 0.500000 -0.026253
v 0.303947 0.500000 -0.108332
v 0.802059 0.500000 -0.081976
v -0.651649 -0.500000 0.158348
v -0.651649 -0.500000 0.158348
v -0.651649 -0.500000 0.158348
v -0.651649 -0.000000 0.158349
v -0.651649 -0.000000 0.158349
v -0.651649 -0.000000 0.158349
v -0.651649 0.500000 0.158349
v -0.651649 0.500000 0.158349
v -0.651649 0.500000 0.158349
v 1.282978 -0.750000 0.040606
v 1.292978 -0.250000 0.050606
v 1.282978 0.250000 0.040606
v 1.292978 0.750000 0.050607
v -0.644723 0.992822 0.157643
v -0.644723 0.992822 0.157643
v -0.661649 1.000000 0.158349
v -0.644723 0.992822 0.157643
v 1.279810 -0.750000 0.060091
v 1.288819 -0.250000 0.058723
v 1.274862 0.250000 0.056448
v 1.273108 0.750000 0.048998
v -0.653625 -0.750000 0.168151
v -0.645477 -0.250000 0.166216
v -0.643230 0.250000 0.163745
v -0.653625 0.750000 0.168151
v 1.292978 -0.750000 0.050606
v 1.282979 -0.750000 0.040606
v 1.286430 -0.750000 0.041221
v 1.275907 -0.250000 0.043536
v 1.275907 -0.250000 0.057677
v 1.282978 -0.250000 0.040606
v 1.282978 0.250000 0.040606
v 1.275907 0.250000 0.043536
v 1.282978 0.250000 0.040606
v 1.275068 0.743883 0.050683
v 1.292978 0.750000 0.050607
v 1.275907 0.750000 0.043536
v -0.185419 -0.750000 -0.016624
v 0.304516 -0.750000 -0.098349
v 0.800454 -0.750000 -0.072106
v -0.185419 -0.250000 -0.016624
v 0.304516 -0.250000 -0.098348
v 0.800454 -0.250000 -0.072106
v -0.185419 0.250000 -0.016624
v 0.304516 0.250000 -0.098348
v 0.800453 0.250000 -0.072106
v -0.185419 0.750000 -0.016623
v 0.304516 0.750000 -0.098348
v 0.800453 0.750000 -0.072106
v -0.651649 -0.750000 0.148348
v -0.651649 -0.750000 0.148348
v -0.658720 -0.750000 0.151278
v -0.644578 -0.500000 0.151278
v -0.661136 -0.250000 0.155187
v -0.642016 -0.247504 0.157367
v -0.651649 -0.250000 0.148349
v -0.651649 -0.000000 0.148349
v -0.658720 0.000000 0.151278
v -0.644578 0.250000 0.151278
v -0.642016 0.247504 0.157367
v -0.651649 0.490000 0.158349
v -0.661649 0.500000 0.158349
v -0.642162 0.500000 0.155187
v -0.651649 0.750000 0.148349
vt 1.000000 0.500000
vt 1.000000 0.500000
vt 1.000000 0.250000
vt 1.000000 0.250000
vt 1.000000 0.250000
vt 1.000000 0.125000
vt 1.000000 0.000000
vt 1.000000 0.500000
vt 1.000000 0.250000
vt 0.750000 0.250000
vt 0.750000 0.500000
vt 1.000000 0.750000
vt 1.000000 0.750000
vt 1.000000 0.875000
vt 1.000000 0.875000
vt 1.000000 1.000000
vt 1.000000 1.000000
vt 1.000000 0.875000
vt 1.000000 0.875000
vt 1.000000 1.000000
vt 1.000000 1.000000
vt 1.000000 1.000000
vt 1.000000 0.875000
vt 1.000000 0.750000
vt 1.000000 0.125000
vt 0.750000 0.125000
vt 0.750000 0.000000
vt 1.000000 0.000000
vt 1.000000 0.000000
vt 1.000000 0.250000
vt 1.000000 0.000000
vt 1.000000 0.000000
vt 1.000000 0.750000
vt 1.000000 0.500000
vt 1.000000 0.625000
vt 1.000000 0.500000
vt 0.000000 0.750000
vt 0.000000 0.750000
vt 0.000000 0.500000
vt 0.000000 0.500000
vt 0.500000 0.125000
vt 0.500000 0.000000
vt 1.000000 0.750000
vt 0.000000 0.875000
vt 0.250000 0.875000
vt 0.250000 1.000000
vt 0.000000 1.000000
vt 0.500000 0.500000
vt 0.500000 0.250000
vt 0.500000 0.750000
vt 0.750000 0.750000
vt 0.500000 0.875000
vt 0.750000 0.875000
vt 0.750000 1.000000
vt 0.500000 1.000000
vt 0.000000 0.125000
vt 0.000000 0.125000
vt 0.000000 0.000000
vt 0.000000 0.000000
vt 0.250000 0.000000
vt 0.000000 0.250000
vt 0.250000 0.250000
vt 0.000000 0.250000
vt 0.000000 0.250000
vt 0.000000 0.125000
vt 0.000000 0.000000
vt 0.000000 1.000000
vt 0.000000 1.000000
vt 0.000000 1.000000
vt 0.000000 0.250000
vt 0.000000 0.500000
vt 0.000000 0.500000
vt 0.000000 0.250000
vt 0.250000 0.750000
vt 0.000000 0.750000
vt 0.000000 0.500000
vt 0.250000 0.500000
vt 0.000000 0.750000
vt 0.000000 1.000000
vt 0.000000 0.750000
vt 0.000000 0.125000
vt 0.000000 0.000000
vt 0.000000 0.750000
vt 0.000000 0.500000
vt 0.000000 1.000000
vt 0.000000 1.000000
vt 0.000000 1.000000
vt 0.000000 1.000000
vt 0.000000 0.750000
vt 0.000000 0.625000
vt 0.000000 0.625000
vt 0.000000 0.000000
vt 0.000000 0.250000
vt 0.750000 0.375000
vt 1.000000 0.375000
vt 0.000000 0.750000
vt 1.000000 0.125000
vt 0.250000 0.125000
vt 1.000000 0.375000
vt 1.000000 0.375000
vt 1.000000 0.375000
vt 1.000000 0.625000
vt 1.000000 0.625000
vt 0.500000 0.375000
vt 1.000000 0.125000
vt 1.000000 0.125000
vt 1.000000 0.375000
vt 1.000000 0.625000
vt 0.000000 0.375000
vt 0.000000 0.375000
vt 0.750000 0.625000
vt 1.000000 0.625000
vt 0.000000 0.375000
vt 0.250000 0.375000
vt 0.000000 0.375000
vt 0.000000 0.625000
vt 0.250000 0.625000
vt 0.000000 0.500000
vt 0.000000 0.875000
vt 0.500000 0.625000
vn 0.0000 0.0000 1.0000
vn -1.0000 -0.0000 0.0000
vn 0.2658 0.0000 -0.9640
vn 0.3826 0.0153 -0.9238
vn -0.6166 0.0193 0.7871
vn 0.0000 0.0000 -1.0000
vn -0.2656 -0.0398 0.9633
vn -0.2371 -0.0000 0.9715
vn 0.2425 0.0000 -0.9701
vn -0.2425 -0.0000 0.9701
vn 1.0000 0.0000 0.0000
vn -0.0528 -0.0397 0.9978
vn 0.3683 0.0366 0.9290
vn 0.0528 0.0000 -0.9986
vn -0.0528 0.0397 0.9978
vn -0.2570 0.0219 0.9662
vn -0.9571 -0.0189 0.2890
vn -0.3700 0.0000 -0.9290
vn -0.1645 0.0000 -0.9864
vn -0.3825 -0.0369 -0.9232
vn 0.0000 0.0979 -0.9952
vn 0.9239 0.0077 0.3827
vn 0.1014 -0.0000 0.9948
vn -0.9213 0.0028 0.3889
vn -0.2623 0.0037 0.9650
vn 0.1601 -0.0170 0.9869
vn 0.1753 -0.0393 -0.9837
vn 0.1644 -0.0397 0.9856
vn -0.9239 0.0000 -0.3827
vn -0.0528 -0.0000 0.9986
vn -0.1399 -0.0377 -0.9894
vn -0.3827 0.0000 -0.9239
vn -0.8201 0.0000 0.5722
vn -0.7071 -0.0000 0.7071
vn -0.3827 -0.0108 0.9238
vn -0.9511 0.0160 0.3085
vn -0.2549 0.0068 0.9669
vn 0.8160 0.0064 0.5781
vn 0.9882 0.0060 -0.1527
vn 0.9999 0.0081 0.0104
vn 0.3827 0.0000 -0.9239
vn 0.0000 -0.0979 0.9952
vn 0.1645 -0.0000 0.9864
vn -0.0414 0.0129 -0.9991
vn 0.7071 -0.0000 0.7071
vn 0.3668 -0.0003 0.9303
vn 0.3679 0.0015 0.9298
vn 0.3682 -0.0012 0.9297
vn 0.3425 0.0000 -0.9395
vn 0.8425 0.0000 0.5387
vn 0.5843 -0.0234 0.8112
vn -0.9799 0.0104 0.1993
vn -0.1113 -0.0157 0.9937
vn -0.1154 0.0166 0.9932
vn 0.7026 0.0072 -0.7116
vn 0.8165 0.0082 0.5773
vn -0.5547 -0.8321 0.0000
vn 0.1052 -0.0022 0.9944
vn -0.0265 -0.0005 -0.9996
vn -0.9945 0.0322 -0.0992
vn 0.7071 0.0000 -0.7071
vn -0.7068 0.0283 -0.7068
vn -0.7068 -0.0283 -0.7068
vn -0.1753 0.0393 0.9837
vn -0.9927 -0.0204 -0.1190
vn -0.2601 -0.0014 0.9656
vn 0.0042 0.0002 1.0000
vn -0.3827 -0.0107 -0.9238
vn 0.2209 -0.0125 0.9752
vn -0.1945 0.0110 0.9808
vn 0.4479 -0.0075 -0.8941
vn 0.8772 -0.0192 -0.4797
vn 0.1644 0.0397 0.9856
vn -0.3814 -0.0108 -0.9243
vn -0.2469 -0.0144 0.9689
vn 0.7069 -0.0283 -0.7068
vn 0.3683 -0.0366 0.9290
vn -0.3826 -0.0153 0.9238
vn -0.1597 0.0165 -0.9870
usemtl None
s off
f 91/1/1 92/2/1 89/3/1 88/4/1
f 63/5/2 114/6/2 50/7/2
f 76/8/3 75/9/3 98/10/3 101/11/3
f 94/12/1 95/13/1 92/2/1 91/1/1
f 140/14/4 141/15/4 72/16/4 73/17/4
f 125/18/5 139/19/5 74/20/5 54/21/5
f 52/22/6 117/23/6 65/24/6
f 122/25/7 144/26/7 71/27/7 53/28/7
f 60/29/8 53/28/8 75/9/8 87/30/8
f 61/31/9 60/29/9 87/30/9 88/4/9
f 62/32/10 61/31/10 88/4/10 89/3/10
f 93/33/11 94/12/11 91/1/11 90/34/11
f 50/7/9 62/32/9 89/3/9 63/5/9
f 65/24/2 116/35/2 64/36/2
f 111/37/11 112/38/11 109/39/11 108/40/11
f 64/36/6 63/5/6 89/3/6 92/2/6
f 65/24/1 64/36/1 92/2/1 95/13/1
f 144/26/12 143/41/12 70/42/12 71/27/12
f 52/22/1 65/24/1 95/13/1 72/16/1
f 73/17/1 72/16/1 95/13/1 94/12/1
f 74/20/1 73/17/1 94/12/1 93/33/1
f 54/21/1 74/20/1 93/33/1 77/43/1
f 76/8/1 77/43/1 93/33/1 90/34/1
f 75/9/6 76/8/6 90/34/6 87/30/6
f 129/44/13 151/45/13 80/46/13 55/47/13
f 100/48/14 101/11/14 98/10/14 97/49/14
f 103/50/14 104/51/14 101/11/14 100/48/14
f 152/52/15 153/53/15 78/54/15 79/55/15
f 153/53/16 125/18/16 54/21/16 78/54/16
f 126/56/17 156/57/17 83/58/17 56/59/17
f 69/60/18 56/59/18 84/61/18 96/62/18
f 70/42/19 69/60/19 96/62/19 97/49/19
f 71/27/14 70/42/14 97/49/14 98/10/14
f 53/28/3 71/27/3 98/10/3 75/9/3
f 108/40/1 109/39/1 106/63/1 105/64/1
f 54/21/3 77/43/3 104/51/3 78/54/3
f 156/57/20 155/65/20 82/66/20 83/58/20
f 68/67/21 121/68/21 120/69/21
f 157/70/22 161/71/22 58/72/22 59/73/22
f 79/55/14 78/54/14 104/51/14 103/50/14
f 80/46/19 79/55/19 103/50/19 102/74/19
f 55/47/18 80/46/18 102/74/18 86/75/18
f 85/76/18 86/75/18 102/74/18 99/77/18
f 84/61/18 85/76/18 99/77/18 96/62/18
f 165/78/23 121/68/23 51/79/23 57/80/23
f 155/65/11 154/81/11 81/82/11 82/66/11
f 112/38/2 113/83/2 110/84/2 109/39/2
f 67/85/1 119/86/1 66/87/1
f 66/87/1 118/88/1 55/47/1
f 167/89/24 163/90/24 164/91/24
f 49/92/2 59/73/2 105/64/2 81/82/2
f 82/66/2 81/82/2 105/64/2 106/63/2
f 83/58/11 82/66/11 106/63/11 107/93/11
f 147/94/25 144/26/25 122/25/25 123/95/25
f 56/59/11 83/58/11 107/93/11 84/61/11
f 166/96/26 163/90/26 167/89/26
f 114/6/27 132/97/27 62/32/27 50/7/27
f 113/83/1 66/87/1 55/47/1 86/75/1
f 67/85/2 66/87/2 113/83/2 112/38/2
f 68/67/11 67/85/11 112/38/11 111/37/11
f 143/41/28 142/98/28 69/60/28 70/42/28
f 111/37/1 57/80/1 51/79/1 68/67/1
f 58/72/11 57/80/11 111/37/11 108/40/11
f 59/73/2 58/72/2 108/40/2 105/64/2
f 109/39/1 110/84/1 107/93/1 106/63/1
f 64/36/6 115/99/6 63/5/6
f 133/100/29 134/101/29 137/102/29 136/103/29
f 143/41/30 144/26/30 147/94/30 146/104/30
f 55/47/31 118/88/31 129/44/31
f 130/105/32 131/106/32 134/101/32 133/100/32
f 114/6/33 115/99/33 135/107/33 132/97/33
f 115/99/34 116/35/34 138/108/34 135/107/34
f 116/35/35 117/23/35 141/15/35 138/108/35
f 160/109/36 156/57/36 126/56/36 127/110/36
f 153/53/37 150/111/37 124/112/37 125/18/37
f 125/18/38 124/112/38 136/103/38 139/19/38
f 124/112/39 123/95/39 133/100/39 136/103/39
f 123/95/40 122/25/40 130/105/40 133/100/40
f 159/113/41 160/109/41 164/91/41 163/90/41
f 67/85/42 120/69/42 119/86/42
f 142/98/43 143/41/43 146/104/43 145/114/43
f 158/115/44 157/70/44 154/81/44
f 157/70/45 59/73/45 49/92/45
f 129/44/46 128/116/46 148/117/46 151/45/46
f 128/116/47 127/110/47 145/114/47 148/117/47
f 127/110/48 126/56/48 142/98/48 145/114/48
f 155/65/49 156/57/49 160/109/49 159/113/49
f 131/106/50 132/97/50 135/107/50 134/101/50
f 130/105/51 122/25/51 53/28/51 60/29/51
f 164/91/52 160/109/52 127/110/52 128/116/52
f 154/81/53 155/65/53 159/113/53 158/115/53
f 162/118/54 158/115/54 159/113/54
f 168/119/55 119/86/55 167/89/55
f 90/34/2 91/1/2 88/4/2 87/30/2
f 102/74/19 103/50/19 100/48/19 99/77/19
f 134/101/56 135/107/56 138/108/56 137/102/56
f 119/86/57 168/119/57 118/88/57 66/87/57
f 119/86/58 120/69/58 166/96/58 167/89/58
f 120/69/59 121/68/59 165/78/59 166/96/59
f 118/88/60 168/119/60 129/44/60
f 137/102/61 138/108/61 141/15/61 140/14/61
f 63/5/62 115/99/62 114/6/62
f 64/36/63 116/35/63 115/99/63
f 65/24/62 117/23/62 116/35/62
f 146/104/30 147/94/30 150/111/30 149/120/30
f 132/97/64 131/106/64 61/31/64 62/32/64
f 148/117/43 149/120/43 152/52/43 151/45/43
f 168/119/65 164/91/65 128/116/65 129/44/65
f 149/120/30 150/111/30 153/53/30 152/52/30
f 150/111/66 147/94/66 123/95/66 124/112/66
f 85/76/11 84/61/11 107/93/11 110/84/11
f 139/19/67 140/14/67 73/17/67 74/20/67
f 161/71/68 158/115/68 162/118/68
f 163/90/69 166/96/69 162/118/69
f 145/114/43 146/104/43 149/120/43 148/117/43
f 51/79/1 121/68/1 68/67/1
f 163/90/70 162/118/70 159/113/70
f 168/119/71 167/89/71 164/91/71
f 157/70/72 49/92/72 81/82/72 154/81/72
f 151/45/73 152/52/73 79/55/73 80/46/73
f 158/115/74 161/71/74 157/70/74
f 136/103/75 137/102/75 140/14/75 139/19/75
f 68/67/1 120/69/1 67/85/1
f 131/106/76 130/105/76 60/29/76 61/31/76
f 77/43/3 76/8/3 101/11/3 104/51/3
f 142/98/77 126/56/77 56/59/77 69/60/77
f 99/77/19 100/48/19 97/49/19 96/62/19
f 86/75/1 85/76/1 110/84/1 113/83/1
f 117/23/78 52/22/78 72/16/78 141/15/78
f 161/71/79 162/118/79 166/96/79 165/78/79
f 161/71/11 165/78/11 57/80/11 58/72/11
